<?xml version="1.0" standalone="no"?>
<!DOCTYPE svg PUBLIC "-//W3C//DTD SVG 20010904//EN"
 "http://www.w3.org/TR/2001/REC-SVG-20010904/DTD/svg10.dtd">
<svg version="1.0"
  xmlns="http://www.w3.org/2000/svg" width="52.000000pt" height="52.000000pt" viewBox="0 0 52.000000 52.000000" preserveAspectRatio="xMidYMid meet">

  <g transform="translate(0.000000,52.000000) scale(0.100000,-0.100000)" fill="#C48259" stroke="none">
    <path d="M85 495 c-25 -24 -25 -24 -25 -235 0 -276 -12 -260 200 -260 147 0
152 1 175 25 25 24 25 27 25 191 l0 167 -70 68 -70 69 -105 0 c-99 0 -107 -2
-130 -25z m215 -75 l5 -55 55 -5 55 -5 3 -144 c2 -97 -1 -148 -9 -157 -15 -19
-279 -20 -297 -2 -17 17 -17 399 0 416 9 9 40 12 98 10 l85 -3 5 -55z"/>
    <path d="M170 325 c-15 -18 -10 -45 13 -59 34 -22 73 27 47 59 -16 19 -44 19
-60 0z"/>
    <path d="M292 230 c-23 -55 -35 -60 -68 -29 -12 12 -27 18 -33 14 -11 -6 -51
-78 -51 -90 0 -9 228 -6 234 4 8 12 -32 127 -48 140 -10 9 -18 0 -34 -39z"/>
  </g>
</svg>
