<?xml version="1.0" standalone="no"?>
<!DOCTYPE svg PUBLIC "-//W3C//DTD SVG 20010904//EN"
 "http://www.w3.org/TR/2001/REC-SVG-20010904/DTD/svg10.dtd">
<svg version="1.0"
  xmlns="http://www.w3.org/2000/svg" width="52.000000pt" height="52.000000pt" viewBox="0 0 52.000000 52.000000" preserveAspectRatio="xMidYMid meet">

  <g transform="translate(0.000000,52.000000) scale(0.100000,-0.100000)" fill="#C48259" stroke="none">
    <path d="M85 495 c-25 -24 -25 -24 -25 -235 0 -276 -12 -260 200 -260 147 0
152 1 175 25 25 24 25 27 25 191 l0 167 -70 68 -70 69 -105 0 c-99 0 -107 -2
-130 -25z m215 -75 l5 -55 55 -5 55 -5 3 -144 c2 -97 -1 -148 -9 -157 -15 -19
-279 -20 -297 -2 -17 17 -17 399 0 416 9 9 40 12 98 10 l85 -3 5 -55z"/>
    <path d="M224 326 c-3 -9 -2 -29 4 -44 8 -23 5 -39 -10 -75 -11 -26 -26 -47
-33 -47 -18 0 -48 -37 -40 -49 11 -19 33 -12 55 19 26 37 87 58 119 41 28 -15
63 -5 59 17 -3 12 -14 17 -40 17 -52 0 -73 24 -73 83 0 36 -4 47 -18 50 -9 2
-20 -4 -23 -12z m50 -127 c-5 -9 -34 -13 -34 -5 0 2 3 12 6 20 5 13 9 14 20 5
8 -6 11 -15 8 -20z"/>
  </g>
</svg>
