<?xml version="1.0" standalone="no"?>
<!DOCTYPE svg PUBLIC "-//W3C//DTD SVG 20010904//EN"
 "http://www.w3.org/TR/2001/REC-SVG-20010904/DTD/svg10.dtd">
<svg version="1.0"
  xmlns="http://www.w3.org/2000/svg" width="52.000000pt" height="52.000000pt" viewBox="0 0 52.000000 52.000000" preserveAspectRatio="xMidYMid meet">

  <g transform="translate(0.000000,52.000000) scale(0.100000,-0.100000)" fill="#C48259" stroke="none">
    <path d="M60 500 c-19 -19 -20 -33 -20 -235 0 -287 -20 -265 245 -265 188 0
195 1 195 20 0 19 -8 20 -191 22 -170 3 -193 5 -203 21 -8 12 -8 22 0 35 10
15 33 17 203 20 l191 2 0 200 0 200 -200 0 c-187 0 -201 -1 -220 -20z m90
-149 c0 -5 -10 -12 -22 -14 l-23 -4 24 -8 25 -8 -23 -9 c-23 -8 -20 -28 5 -28
8 0 14 -5 14 -11 0 -6 -12 -9 -27 -7 -26 3 -28 7 -31 51 -3 46 -3 47 27 47 17
0 31 -4 31 -9z m88 -3 c14 -14 -2 -48 -23 -48 -8 0 -15 -9 -15 -20 0 -11 -4
-20 -10 -20 -5 0 -10 23 -10 50 0 46 2 50 23 50 13 0 28 -5 35 -12z m52 -28
c0 -29 4 -40 15 -40 11 0 15 11 15 40 0 22 5 40 10 40 16 0 12 -76 -5 -90 -8
-6 -23 -9 -35 -5 -16 5 -20 15 -20 51 0 24 5 44 10 44 6 0 10 -18 10 -40z
m141 0 c9 -41 -3 -60 -37 -60 -22 0 -24 4 -24 51 0 49 1 50 27 47 22 -2 29
-10 34 -38z"/>
    <path d="M200 330 c0 -5 5 -10 10 -10 6 0 10 5 10 10 0 6 -4 10 -10 10 -5 0
-10 -4 -10 -10z"/>
    <path d="M390 329 c0 -5 5 -7 10 -4 6 3 10 8 10 11 0 2 -4 4 -10 4 -5 0 -10
-5 -10 -11z"/>
    <path d="M390 296 c0 -9 5 -16 10 -16 6 0 10 4 10 9 0 6 -4 13 -10 16 -5 3
-10 -1 -10 -9z"/>
  </g>
</svg>
