<?xml version="1.0" standalone="no"?>
<!DOCTYPE svg PUBLIC "-//W3C//DTD SVG 20010904//EN"
 "http://www.w3.org/TR/2001/REC-SVG-20010904/DTD/svg10.dtd">
<svg version="1.0"
  xmlns="http://www.w3.org/2000/svg" width="52.000000pt" height="52.000000pt" viewBox="0 0 52.000000 52.000000" preserveAspectRatio="xMidYMid meet">

  <g transform="translate(0.000000,52.000000) scale(0.100000,-0.100000)" fill="#C48259" stroke="none">
    <path d="M85 495 c-25 -24 -25 -24 -25 -235 0 -276 -12 -260 200 -260 212 0
200 -16 200 260 0 276 12 260 -200 260 -147 0 -152 -1 -175 -25z m155 -35 c0
-13 7 -20 20 -20 13 0 20 7 20 20 0 18 7 20 58 20 32 0 63 -5 70 -12 17 -17
17 -399 0 -416 -17 -17 -279 -17 -296 0 -17 17 -17 399 0 416 7 7 38 12 70 12
51 0 58 -2 58 -20z"/>
    <path d="M240 400 c0 -13 7 -20 20 -20 13 0 20 7 20 20 0 13 -7 20 -20 20 -13
0 -20 -7 -20 -20z"/>
    <path d="M240 340 c0 -13 7 -20 20 -20 13 0 20 7 20 20 0 13 -7 20 -20 20 -13
0 -20 -7 -20 -20z"/>
    <path d="M231 276 c-8 -13 -11 -30 -9 -37 3 -8 -1 -33 -9 -57 -14 -49 -7 -74
27 -92 14 -8 26 -8 40 0 34 18 41 43 27 92 -8 24 -12 49 -9 57 7 20 -19 61
-38 61 -9 0 -22 -11 -29 -24z m54 -136 c0 -18 -6 -26 -23 -28 -13 -2 -25 3
-28 12 -10 26 4 48 28 44 17 -2 23 -10 23 -28z"/>
  </g>
</svg>
