<svg version="1.1" id="Layer_1" xmlns="http://www.w3.org/2000/svg" xmlns:xlink="http://www.w3.org/1999/xlink" x="0px" y="0px" viewBox="0 0 500 500" style="width: 164px;" xml:space="preserve" data-imageid="404-page-not-found-1-86" imageName="404 Page Not Found 1" class="illustrations_image">
<style type="text/css">
	.st0_404-page-not-found-1-86{fill:#FFB3A6;}
	.st1_404-page-not-found-1-86{opacity:0.63;fill:url(#SVGID_1_);enable-background:new    ;}
	.st2_404-page-not-found-1-86{opacity:0.63;fill:url(#SVGID_00000060753434036633841320000004030208793579916972_);enable-background:new    ;}
	.st3_404-page-not-found-1-86{opacity:0.63;fill:url(#SVGID_00000121239633729966352380000014182381285137180054_);enable-background:new    ;}
	.st4_404-page-not-found-1-86{opacity:0.63;fill:url(#SVGID_00000147180275022886119990000012773230276578959022_);enable-background:new    ;}
	.st5_404-page-not-found-1-86{opacity:0.63;fill:url(#SVGID_00000114066777665785342320000017631901434604647075_);enable-background:new    ;}
	.st6_404-page-not-found-1-86{fill:#A04D42;}
	.st7_404-page-not-found-1-86{fill:#84210B;}
	.st8_404-page-not-found-1-86{fill:#F84A4B;}
	.st9_404-page-not-found-1-86{fill:#F2F2F2;}
	.st10_404-page-not-found-1-86{fill:#68E1FD;}
	.st11_404-page-not-found-1-86{opacity:0.95;fill:#606060;enable-background:new    ;}
	.st12_404-page-not-found-1-86{fill:#DF5D00;}
	.st13_404-page-not-found-1-86{fill:#FF8522;}
	.st14_404-page-not-found-1-86{opacity:0.15;fill:#FF8522;enable-background:new    ;}
	.st15_404-page-not-found-1-86{fill:#FF9F57;}
</style>
<path class="st0_404-page-not-found-1-86" d="M34.4,247.9l170.5-99.1c2.5-1.4,5.6-1.4,8.1,0l254.9,145.9c3.9,2.2,5.2,7.1,3,11c-0.7,1.3-1.8,2.3-3,3&#xA;&#9;l-163,94.1c-8.1,4.7-18.2,4.7-26.3,0L34.4,261.9c-3.9-2.2-5.2-7.2-3-11C32.2,249.6,33.2,248.6,34.4,247.9z"/>
<g id="Shadow_404-page-not-found-1-86">
	
		<linearGradient id="SVGID_1_-404-page-not-found-1-86" gradientUnits="userSpaceOnUse" x1="163.8526" y1="244.9589" x2="178.0826" y2="278.6989" gradientTransform="matrix(1 0 0 -1 0 502)">
		<stop offset="0" style="stop-color:#F2F2F2;stop-opacity:0"/>
		<stop offset="0.98" style="stop-color:#84210B"/>
	</linearGradient>
	<polyline class="st1_404-page-not-found-1-86" points="248.3,214.8 158.3,267.6 106.1,235.9 179.8,192.9 &#9;"/>
	
		<linearGradient id="SVGID_00000150071604565151826600000013263758119080052411_-404-page-not-found-1-86" gradientUnits="userSpaceOnUse" x1="241.1391" y1="197.1004" x2="254.0691" y2="227.7404" gradientTransform="matrix(1 0 0 -1 0 502)">
		<stop offset="0" style="stop-color:#F2F2F2;stop-opacity:0"/>
		<stop offset="0.98" style="stop-color:#84210B"/>
	</linearGradient>
	<path style="opacity:0.63;fill:url(#SVGID_00000150071604565151826600000013263758119080052411_);enable-background:new    ;" d="&#xA;&#9;&#9;M298.6,266.2c-5.6,2.8-11.7,4.6-17.9,5.5c-9.4,1.4-22.3,3.7-30.9-1.5c-8.1-4.8-8.6-13.3-5.4-21l-60.2,34.9l63.8,35.4l70.3-41.2&#xA;&#9;&#9;L298.6,266.2z"/>
	
		<linearGradient id="SVGID_00000077284356796151033400000017257160874536401833_-404-page-not-found-1-86" gradientUnits="userSpaceOnUse" x1="318.2581" y1="155.9608" x2="329.3581" y2="182.2608" gradientTransform="matrix(1 0 0 -1 0 502)">
		<stop offset="0" style="stop-color:#F2F2F2;stop-opacity:0"/>
		<stop offset="0.98" style="stop-color:#84210B"/>
	</linearGradient>
	
		<polyline style="opacity:0.63;fill:url(#SVGID_00000077284356796151033400000017257160874536401833_);enable-background:new    ;" points="&#xA;&#9;&#9;384.4,323.2 324.1,358.6 269.3,328.2 332.7,291.5 &#9;"/>
	
		<linearGradient id="SVGID_00000103223933056263000500000013851230772692043435_-404-page-not-found-1-86" gradientUnits="userSpaceOnUse" x1="72.7164" y1="223.2254" x2="81.6764" y2="235.7154" gradientTransform="matrix(1 0 0 -1 0 502)">
		<stop offset="0" style="stop-color:#F2F2F2;stop-opacity:0"/>
		<stop offset="0.98" style="stop-color:#84210B"/>
	</linearGradient>
	<path style="opacity:0.63;fill:url(#SVGID_00000103223933056263000500000013851230772692043435_);enable-background:new    ;" d="&#xA;&#9;&#9;M83.1,248.1l-34.9,20.4l30.7,18.6l34.2-20C102.7,261.3,92.3,255.5,83.1,248.1z"/>
	
		<linearGradient id="SVGID_00000163046012421292813990000007732917878576173723_-404-page-not-found-1-86" gradientUnits="userSpaceOnUse" x1="271.7939" y1="106.7402" x2="278.524" y2="116.3402" gradientTransform="matrix(1 0 0 -1 0 502)">
		<stop offset="0" style="stop-color:#F2F2F2;stop-opacity:0"/>
		<stop offset="0.98" style="stop-color:#84210B"/>
	</linearGradient>
	<path style="opacity:0.63;fill:url(#SVGID_00000163046012421292813990000007732917878576173723_);enable-background:new    ;" d="&#xA;&#9;&#9;M283.1,362.9l-34.9,20.4l30.7,18.6l34.2-20C302.7,376.1,292.4,370.2,283.1,362.9z"/>
</g>
<g id="Hole_404-page-not-found-1-86">
	<polygon class="st6_404-page-not-found-1-86" points="103.4,280.7 251.6,365.6 288,344.2 140.9,259.1 &#9;"/>
	<polygon class="st7_404-page-not-found-1-86" points="140.9,259.1 140.9,302.2 103.4,280.7 &#9;"/>
</g>
<g id="Sign_404-page-not-found-1-86">
	<path class="st7_404-page-not-found-1-86" d="M213.7,170.2V96.3h-4.9v73.5C210.3,170.7,212.1,170.8,213.7,170.2z"/>
	<ellipse transform="matrix(0.9816 -0.1908 0.1908 0.9816 -14.9894 42.2429)" class="st8_404-page-not-found-1-86" cx="211.9" cy="99" rx="18.6" ry="21.5"/>
	<path class="st9_404-page-not-found-1-86" d="M212.7,116.7c-7.4,0-14.3-6.1-16-14.7c-0.9-4.5-0.2-9.2,2-13.2c2-3.7,5.6-6.4,9.8-7.2&#xA;&#9;&#9;c8.4-1.6,16.8,4.9,18.6,14.5s-3.4,18.8-11.8,20.4C214.4,116.6,213.5,116.6,212.7,116.7z M211.1,82.3c-0.8,0-1.6,0.1-2.4,0.2&#xA;&#9;&#9;c-3.9,0.8-7.2,3.3-9.1,6.7c-2.1,3.8-2.8,8.2-1.9,12.5c1.8,9.1,9.6,15.2,17.4,13.7s12.8-10.1,11-19.2&#xA;&#9;&#9;C224.5,88.1,218,82.3,211.1,82.3z"/>
	<path class="st9_404-page-not-found-1-86" d="M213.1,88.2c-1-0.9-2.6-0.9-3.6,0c-1.1,1.1-0.7,2.7-0.7,4.2v9.9c-0.1,1.5,1,2.7,2.5,2.8c0.4,0,0.8,0,1.2-0.2&#xA;&#9;&#9;c1.5-0.6,1.4-2,1.4-3.4c0-3.2,0-6.3,0-9.5c0-1.1,0.3-2.6-0.4-3.6C213.3,88.4,213.2,88.3,213.1,88.2z"/>
	<path class="st9_404-page-not-found-1-86" d="M210.7,107.5c-0.4,0.1-0.8,0.5-0.9,0.9c-0.7,1.8,1.3,4,3,2.5c0.8-0.9,0.7-2.2-0.2-3c-0.1-0.1-0.3-0.2-0.5-0.3&#xA;&#9;&#9;C211.7,107.4,211.2,107.4,210.7,107.5z"/>
</g>
<g id="_404_404-page-not-found-1-86">
	<path class="st10_404-page-not-found-1-86 targetColor" d="M408.4,290.3l-3.1-1.8l-12,1.1l1.1-3.4l-15.2-4.2h-46.8l-27.1,8.5v15.6l24.8,14.3h-1.2v15.6l17.1,9.9&#xA;&#9;&#9;l14.1-8.2l9.1,5.3l14.7-8.6v-10.6l41.2-24l0.1,0.1v-15.6L408.4,290.3z M357.6,319.5L336,307l52.3-5.3L357.6,319.5z" style="fill: rgb(207, 153, 119);"/>
	<path class="st11_404-page-not-found-1-86" d="M408.4,290.3l-3.1-1.8l-12,1.1l1.1-3.4l-15.2-4.2h-46.8l-27.1,8.5v15.6l24.8,14.3h-1.2v15.6l17.1,9.9&#xA;&#9;&#9;l14.1-8.2l9.1,5.3l14.7-8.6v-10.6l41.2-24l0.1,0.1v-15.6L408.4,290.3z M357.6,319.5L336,307l52.3-5.3L357.6,319.5z"/>
	<path class="st10_404-page-not-found-1-86 targetColor" d="M374.7,313.7l9.1,5.3l-14.7,8.5l-9.1-5.3l-14.2,8.2l-17.1-9.9l14.2-8.2l-37.6-21.7l17-9.9l83-7.9l19.9,11.5&#xA;&#9;&#9;L374.7,313.7z M357.6,303.9l30.6-17.8l-52.2,5.3L357.6,303.9" style="fill: rgb(207, 153, 119);"/>
	<path class="st10_404-page-not-found-1-86 targetColor" d="M332.2,255.1v-17.8l-12.6,1.5l-0.3-0.1c-2.2-1.3-4.6-2.4-7-3.3c-1.5-4-5-11.5-10.4-12.9c-7.5-2-20,0.3-20,0.3&#xA;&#9;&#9;l-27.7,12.1c0.1,0,2,0.6,4.8,1.2c-5.3,1.8-10.3,4.2-15.1,7c-3.2,1.8-6.2,3.9-9,6.2l-11.1,1.4v18l0,0c0.1,7.2,4.4,13.3,12.9,18.2&#xA;&#9;&#9;c9.5,5.5,21.4,7.9,35.6,7.4c14.1-0.5,27.8-4.6,40-11.7c12.4-7.2,19.1-14.9,20-23.2C332.4,257.8,332.4,256.4,332.2,255.1z&#xA;&#9;&#9; M260.9,252.8c8.3-4.8,16.4-7.6,24.3-8.3c7.9-0.7,14.2,0.3,18.8,3c1.2,0.7,2.3,1.5,3.2,2.5c-7.4,9.6-19,16.1-31,18.6&#xA;&#9;&#9;c-9.2,1.9-17.4,1.3-25.1-4.2c-0.7-0.5-1.6-1.1-2.4-1.8C251.1,259.4,255.2,256.1,260.9,252.8z" style="fill: rgb(207, 153, 119);"/>
	<path class="st11_404-page-not-found-1-86" d="M332.2,255.1v-17.8l-12.6,1.5l-0.3-0.1c-2.2-1.3-4.6-2.4-7-3.3c-1.5-4-5-11.5-10.4-12.9c-7.5-2-20,0.3-20,0.3&#xA;&#9;&#9;l-27.7,12.1c0.1,0,2,0.6,4.8,1.2c-5.3,1.8-10.3,4.2-15.1,7c-3.2,1.8-6.2,3.9-9,6.2l-11.1,1.4v18l0,0c0.1,7.2,4.4,13.3,12.9,18.2&#xA;&#9;&#9;c9.5,5.5,21.4,7.9,35.6,7.4c14.1-0.5,27.8-4.6,40-11.7c12.4-7.2,19.1-14.9,20-23.2C332.4,257.8,332.4,256.4,332.2,255.1z&#xA;&#9;&#9; M260.9,252.8c8.3-4.8,16.4-7.6,24.3-8.3c7.9-0.7,14.2,0.3,18.8,3c1.2,0.7,2.3,1.5,3.2,2.5c-7.4,9.6-19,16.1-31,18.6&#xA;&#9;&#9;c-9.2,1.9-17.4,1.3-25.1-4.2c-0.7-0.5-1.6-1.1-2.4-1.8C251.1,259.4,255.2,256.1,260.9,252.8z"/>
	<path class="st10_404-page-not-found-1-86 targetColor" d="M332.2,241.5c-1,8.2-7.6,16-20,23.2c-12.1,7.1-25.9,11.1-40,11.7c-14.2,0.6-26.1-1.9-35.6-7.4&#xA;&#9;&#9;s-13.8-12.4-12.8-20.6c1-8.2,7.6-16,20-23.2c12.1-7.1,25.9-11.1,39.9-11.7c14.2-0.6,26.1,1.9,35.6,7.4S333.1,233.3,332.2,241.5z&#xA;&#9;&#9; M270.8,263.1c7.9-0.7,16-3.4,24.3-8.3c8.3-4.8,13-9.5,14.2-14.1c1.2-4.6-0.6-8.2-5.2-10.9c-4.6-2.7-10.9-3.7-18.8-3&#xA;&#9;&#9;c-7.9,0.7-16,3.4-24.3,8.3s-13,9.6-14.2,14.1c-1.2,4.6,0.6,8.2,5.2,10.9C256.6,262.8,262.9,263.8,270.8,263.1" style="fill: rgb(207, 153, 119);"/>
	<path class="st10_404-page-not-found-1-86 targetColor" d="M245.2,199.8l-3.1-1.8l-12,1.1l1.1-3.3l-15.2-4.2h-46.8l-27.1,8.6v15.6l24.8,14.3h-1.3v15.6l17.1,9.9&#xA;&#9;&#9;l14.2-8.2l9.1,5.3l14.7-8.6v-10.6l41.2-23.9l0.1,0.1V194L245.2,199.8z M194.5,229l-21.7-12.5l52.3-5.3L194.5,229z" style="fill: rgb(207, 153, 119);"/>
	<path class="st11_404-page-not-found-1-86" d="M245.2,199.8l-3.1-1.8l-12,1.1l1.1-3.3l-15.2-4.2h-46.8l-27.1,8.6v15.6l24.8,14.3h-1.3v15.6l17.1,9.9&#xA;&#9;&#9;l14.2-8.2l9.1,5.3l14.7-8.6v-10.6l41.2-23.9l0.1,0.1V194L245.2,199.8z M194.5,229l-21.7-12.5l52.3-5.3L194.5,229z"/>
	<path class="st10_404-page-not-found-1-86 targetColor" d="M211.6,223.2l9.1,5.3l-14.7,8.6l-9.1-5.3l-14.2,8.2l-17.1-9.9l14.2-8.2l-37.7-21.7l17-9.9l83-7.9l19.9,11.5&#xA;&#9;&#9;L211.6,223.2z M194.5,213.4l30.6-17.8l-52.3,5.3L194.5,213.4" style="fill: rgb(207, 153, 119);"/>
</g>
<g id="Cones_404-page-not-found-1-86">
	<path class="st7_404-page-not-found-1-86" d="M98.3,275.8l28-16.6c2-1.2,2.7-3.8,1.5-5.9c-0.3-0.6-0.8-1.1-1.4-1.4l-23.2-15.1c-2.4-1.6-5.5-1.6-7.9,0.1&#xA;&#9;&#9;l-27.5,18.5c-2,1.3-2.5,4-1.2,6c0.3,0.5,0.8,1,1.3,1.3L90,275.7C92.6,277.3,95.8,277.3,98.3,275.8z"/>
	<path class="st12_404-page-not-found-1-86" d="M98.3,273.2l28-16.6c2-1.2,2.7-3.8,1.5-5.9c-0.3-0.6-0.8-1.1-1.4-1.4l-23.2-15.1c-2.4-1.6-5.5-1.6-7.9,0.1&#xA;&#9;&#9;l-27.5,18.5c-2,1.3-2.5,4-1.2,5.9c0.3,0.5,0.8,1,1.3,1.3L90,273.2C92.6,274.7,95.8,274.7,98.3,273.2z"/>
	<path class="st13_404-page-not-found-1-86" d="M93.7,206.6l-14.9,47.1c0,0-3.6,11.9,18.7,10.7s19.4-12.3,19.4-12.3L102,206.6"/>
	<path class="st9_404-page-not-found-1-86" d="M88.1,224c0,0,3,3.1,9.8,3.1c8.5,0,9.4-4.2,9.4-4.2l3.1,9.5c0,0-2.2,5.4-12.5,5.2c-9.3-0.1-12.9-3.5-12.9-3.5"/>
	<path class="st9_404-page-not-found-1-86" d="M82.6,242c4,3.9,9.5,6.1,15.1,6c11-0.1,15.2-8,15.2-8l3.3,10c0,0-4.7,7.4-18.4,8.3&#xA;&#9;&#9;c-12.8,0.9-18.4-6.3-18.4-6.3"/>
	<path class="st14_404-page-not-found-1-86" d="M96.9,206.9h-3.2L78.8,254c0,0-3.4,11.1,16.5,10.8C95.7,245.5,96.7,226.2,96.9,206.9z"/>
	<ellipse class="st15_404-page-not-found-1-86" cx="97.9" cy="206.9" rx="4.2" ry="2.4"/>
	<path class="st7_404-page-not-found-1-86" d="M294.2,393.6l28-16.6c2-1.2,2.7-3.8,1.5-5.9c-0.3-0.6-0.8-1.1-1.4-1.4l-23.2-15.1c-2.4-1.6-5.5-1.5-7.9,0.1&#xA;&#9;&#9;l-27.5,18.5c-2,1.3-2.5,4-1.2,6c0.3,0.5,0.8,1,1.3,1.3l21.9,13.1C288.4,395.2,291.7,395.2,294.2,393.6z"/>
	<path class="st12_404-page-not-found-1-86" d="M294.2,391.1l28-16.6c2-1.2,2.7-3.8,1.5-5.9c-0.3-0.6-0.8-1.1-1.4-1.4l-23.2-15.1c-2.4-1.6-5.5-1.5-7.9,0.1&#xA;&#9;&#9;l-27.5,18.5c-2,1.3-2.5,4-1.2,6c0.4,0.5,0.8,1,1.4,1.3l21.9,13.1C288.5,392.7,291.7,392.7,294.2,391.1z"/>
	<path class="st13_404-page-not-found-1-86" d="M289.6,324.5l-14.9,47.1c0,0-3.6,12,18.7,10.7s19.4-12.3,19.4-12.3l-14.9-45.5"/>
	<path class="st9_404-page-not-found-1-86" d="M284.1,341.9c0,0,2.9,3.1,9.8,3.1c8.5,0,9.4-4.2,9.4-4.2l3.1,9.5c0,0-2.2,5.4-12.5,5.2&#xA;&#9;&#9;c-9.3-0.2-12.9-3.5-12.9-3.5"/>
	<path class="st9_404-page-not-found-1-86" d="M278.5,359.9c4,3.9,9.5,6.1,15.1,6c11-0.1,15.2-8,15.2-8l3.3,10c0,0-4.7,7.4-18.4,8.3&#xA;&#9;&#9;c-12.8,0.9-18.4-6.3-18.4-6.3"/>
	<path class="st14_404-page-not-found-1-86" d="M292.8,324.8h-3.2l-14.9,47.1c0,0-3.4,11.1,16.5,10.8C291.6,363.4,292.6,344.1,292.8,324.8z"/>
	<ellipse class="st15_404-page-not-found-1-86" cx="293.8" cy="324.8" rx="4.2" ry="2.4"/>
</g>
</svg>