<svg id="_0375_bomb" xmlns="http://www.w3.org/2000/svg" xmlns:xlink="http://www.w3.org/1999/xlink" viewBox="0 0 500 500" data-imageid="bomb-9" imageName="Bomb" class="illustrations_image" style="width: 164px;"><defs><style>.cls-1_bomb-9{fill:url(#linear-gradient);}.cls-1_bomb-9,.cls-2_bomb-9,.cls-3_bomb-9,.cls-4_bomb-9,.cls-5_bomb-9,.cls-6_bomb-9,.cls-7_bomb-9,.cls-8_bomb-9,.cls-9_bomb-9,.cls-10_bomb-9,.cls-11_bomb-9,.cls-12_bomb-9,.cls-13_bomb-9,.cls-14_bomb-9,.cls-15_bomb-9,.cls-16_bomb-9,.cls-17_bomb-9,.cls-18_bomb-9,.cls-19_bomb-9,.cls-20_bomb-9,.cls-21_bomb-9,.cls-22_bomb-9,.cls-23_bomb-9,.cls-24_bomb-9,.cls-25_bomb-9,.cls-26_bomb-9,.cls-27_bomb-9,.cls-28_bomb-9,.cls-29_bomb-9,.cls-30_bomb-9,.cls-31_bomb-9,.cls-32_bomb-9,.cls-33_bomb-9,.cls-34_bomb-9,.cls-35_bomb-9,.cls-36_bomb-9,.cls-37_bomb-9{stroke-width:0px;}.cls-2_bomb-9{opacity:.18;}.cls-2_bomb-9,.cls-27_bomb-9,.cls-28_bomb-9{isolation:isolate;}.cls-2_bomb-9,.cls-27_bomb-9,.cls-28_bomb-9,.cls-37_bomb-9{fill:#68e1fd;}.cls-3_bomb-9{fill:url(#linear-gradient-33-bomb-9);}.cls-4_bomb-9{fill:url(#linear-gradient-29-bomb-9);}.cls-5_bomb-9{fill:url(#linear-gradient-32-bomb-9);}.cls-6_bomb-9{fill:url(#linear-gradient-30-bomb-9);}.cls-7_bomb-9{fill:url(#linear-gradient-31-bomb-9);}.cls-8_bomb-9{fill:url(#linear-gradient-28-bomb-9);}.cls-9_bomb-9{fill:url(#linear-gradient-25-bomb-9);}.cls-10_bomb-9{fill:url(#linear-gradient-11-bomb-9);}.cls-11_bomb-9{fill:url(#linear-gradient-12-bomb-9);}.cls-12_bomb-9{fill:url(#linear-gradient-13-bomb-9);}.cls-13_bomb-9{fill:url(#linear-gradient-10-bomb-9);}.cls-14_bomb-9{fill:url(#linear-gradient-17-bomb-9);}.cls-15_bomb-9{fill:url(#linear-gradient-16-bomb-9);}.cls-16_bomb-9{fill:url(#linear-gradient-19-bomb-9);}.cls-17_bomb-9{fill:url(#linear-gradient-15-bomb-9);}.cls-18_bomb-9{fill:url(#linear-gradient-23-bomb-9);}.cls-19_bomb-9{fill:url(#linear-gradient-21-bomb-9);}.cls-20_bomb-9{fill:url(#linear-gradient-18-bomb-9);}.cls-21_bomb-9{fill:url(#linear-gradient-14-bomb-9);}.cls-22_bomb-9{fill:url(#linear-gradient-22-bomb-9);}.cls-23_bomb-9{fill:url(#linear-gradient-20-bomb-9);}.cls-24_bomb-9{fill:url(#linear-gradient-27-bomb-9);}.cls-25_bomb-9{fill:url(#linear-gradient-24-bomb-9);}.cls-26_bomb-9{fill:url(#linear-gradient-26-bomb-9);}.cls-27_bomb-9{opacity:.47;}.cls-28_bomb-9{opacity:.17;}.cls-38_bomb-9{opacity:.56;}.cls-29_bomb-9{fill:url(#linear-gradient-4-bomb-9);}.cls-30_bomb-9{fill:url(#linear-gradient-2-bomb-9);}.cls-31_bomb-9{fill:url(#linear-gradient-3-bomb-9);}.cls-32_bomb-9{fill:url(#linear-gradient-8-bomb-9);}.cls-33_bomb-9{fill:url(#linear-gradient-9-bomb-9);}.cls-34_bomb-9{fill:url(#linear-gradient-7-bomb-9);}.cls-35_bomb-9{fill:url(#linear-gradient-5-bomb-9);}.cls-36_bomb-9{fill:url(#linear-gradient-6-bomb-9);}</style><linearGradient id="linear-gradient-bomb-9" x1="788.06" y1="3182.3" x2="793.65" y2="3182.3" gradientTransform="translate(-501.85 3364.59) scale(1 -1)" gradientUnits="userSpaceOnUse"><stop offset="0" stop-color="#000"/><stop offset=".13" stop-color="#000" stop-opacity=".69"/><stop offset="1" stop-color="#000" stop-opacity="0"/></linearGradient><linearGradient id="linear-gradient-2-bomb-9" x1="789.15" y1="3185.36" x2="795.28" y2="3185.36" xlink:href="#linear-gradient-bomb-9"/><linearGradient id="linear-gradient-3-bomb-9" x1="790.95" y1="3188.77" x2="796.98" y2="3188.77" xlink:href="#linear-gradient-bomb-9"/><linearGradient id="linear-gradient-4-bomb-9" x1="793.04" y1="3191.92" x2="799.36" y2="3191.92" xlink:href="#linear-gradient-bomb-9"/><linearGradient id="linear-gradient-5-bomb-9" x1="-42.03" y1="3399.03" x2="-36.43" y2="3399.03" gradientTransform="translate(-1716.13 2910.85) rotate(36.97) scale(1 -1)" xlink:href="#linear-gradient-bomb-9"/><linearGradient id="linear-gradient-6-bomb-9" x1="-40.93" y1="3402.08" x2="-34.8" y2="3402.08" gradientTransform="translate(-1716.13 2910.85) rotate(36.97) scale(1 -1)" xlink:href="#linear-gradient-bomb-9"/><linearGradient id="linear-gradient-7-bomb-9" x1="-39.14" y1="3405.55" x2="-33.11" y2="3405.55" gradientTransform="translate(-1716.13 2910.85) rotate(36.97) scale(1 -1)" xlink:href="#linear-gradient-bomb-9"/><linearGradient id="linear-gradient-8-bomb-9" x1="-37.05" y1="3408.68" x2="-30.72" y2="3408.68" gradientTransform="translate(-1716.13 2910.85) rotate(36.97) scale(1 -1)" xlink:href="#linear-gradient-bomb-9"/><linearGradient id="linear-gradient-9-bomb-9" x1="-305.76" y1="3360.25" x2="-300.17" y2="3360.25" gradientTransform="translate(-2010.96 2610.86) rotate(48.65) scale(1 -1)" xlink:href="#linear-gradient-bomb-9"/><linearGradient id="linear-gradient-10-bomb-9" x1="-304.66" y1="3363.3" x2="-298.54" y2="3363.3" gradientTransform="translate(-2010.96 2610.86) rotate(48.65) scale(1 -1)" xlink:href="#linear-gradient-bomb-9"/><linearGradient id="linear-gradient-11-bomb-9" x1="-302.87" y1="3366.73" x2="-296.84" y2="3366.73" gradientTransform="translate(-2010.96 2610.86) rotate(48.65) scale(1 -1)" xlink:href="#linear-gradient-bomb-9"/><linearGradient id="linear-gradient-12-bomb-9" x1="-300.78" y1="3369.89" x2="-294.45" y2="3369.89" gradientTransform="translate(-2010.96 2610.86) rotate(48.65) scale(1 -1)" xlink:href="#linear-gradient-bomb-9"/><linearGradient id="linear-gradient-13-bomb-9" x1="-298.57" y1="3372.36" x2="-292.97" y2="3372.36" gradientTransform="translate(-2010.96 2610.86) rotate(48.65) scale(1 -1)" xlink:href="#linear-gradient-bomb-9"/><linearGradient id="linear-gradient-14-bomb-9" x1="-297.47" y1="3375.4" x2="-291.34" y2="3375.4" gradientTransform="translate(-2010.96 2610.86) rotate(48.65) scale(1 -1)" xlink:href="#linear-gradient-bomb-9"/><linearGradient id="linear-gradient-15-bomb-9" x1="324.18" y1="3415.77" x2="330.22" y2="3415.77" gradientTransform="translate(-1263.59 3200.5) rotate(22.19) scale(1 -1)" xlink:href="#linear-gradient-bomb-9"/><linearGradient id="linear-gradient-16-bomb-9" x1="326.28" y1="3418.94" x2="332.59" y2="3418.94" gradientTransform="translate(-1263.59 3200.5) rotate(22.19) scale(1 -1)" xlink:href="#linear-gradient-bomb-9"/><linearGradient id="linear-gradient-17-bomb-9" x1="386.2" y1="3410.58" x2="391.8" y2="3410.58" gradientTransform="translate(-1166.3 3244.38) rotate(19.43) scale(1 -1)" xlink:href="#linear-gradient-bomb-9"/><linearGradient id="linear-gradient-18-bomb-9" x1="387.3" y1="3413.62" x2="393.43" y2="3413.62" gradientTransform="translate(-1166.3 3244.38) rotate(19.43) scale(1 -1)" xlink:href="#linear-gradient-bomb-9"/><linearGradient id="linear-gradient-19-bomb-9" x1="955.76" y1="3145.56" x2="961.8" y2="3145.56" gradientTransform="translate(-227.22 3391.64) rotate(-7.04) scale(1 -1)" xlink:href="#linear-gradient-bomb-9"/><linearGradient id="linear-gradient-20-bomb-9" x1="957.86" y1="3148.69" x2="964.18" y2="3148.69" gradientTransform="translate(-227.22 3391.64) rotate(-7.04) scale(1 -1)" xlink:href="#linear-gradient-bomb-9"/><linearGradient id="linear-gradient-21-bomb-9" x1="755.6" y1="3283.5" x2="761.2" y2="3283.5" gradientTransform="translate(-571.38 3389.87) rotate(2.72) scale(1 -1)" xlink:href="#linear-gradient-bomb-9"/><linearGradient id="linear-gradient-22-bomb-9" x1="756.7" y1="3286.55" x2="762.84" y2="3286.55" gradientTransform="translate(-571.38 3389.87) rotate(2.72) scale(1 -1)" xlink:href="#linear-gradient-bomb-9"/><linearGradient id="linear-gradient-23-bomb-9" x1="1229.82" y1="2867.13" x2="1235.85" y2="2867.13" gradientTransform="translate(370.4 3260.89) rotate(-23.75) scale(1 -1)" xlink:href="#linear-gradient-bomb-9"/><linearGradient id="linear-gradient-24-bomb-9" x1="1231.92" y1="2870.29" x2="1238.24" y2="2870.29" gradientTransform="translate(370.4 3260.89) rotate(-23.75) scale(1 -1)" xlink:href="#linear-gradient-bomb-9"/><linearGradient id="linear-gradient-25-bomb-9" x1="961.45" y1="3157.33" x2="967.05" y2="3157.33" gradientTransform="translate(-185.33 3391.1) rotate(-7.72) scale(1 -1)" xlink:href="#linear-gradient-bomb-9"/><linearGradient id="linear-gradient-26-bomb-9" x1="962.55" y1="3160.35" x2="968.68" y2="3160.35" gradientTransform="translate(-185.33 3391.1) rotate(-7.72) scale(1 -1)" xlink:href="#linear-gradient-bomb-9"/><linearGradient id="linear-gradient-27-bomb-9" x1="1357.88" y1="2662.42" x2="1363.92" y2="2662.42" gradientTransform="translate(717.45 3093.63) rotate(-34.19) scale(1 -1)" xlink:href="#linear-gradient-bomb-9"/><linearGradient id="linear-gradient-28-bomb-9" x1="1359.97" y1="2665.6" x2="1366.29" y2="2665.6" gradientTransform="translate(717.45 3093.63) rotate(-34.19) scale(1 -1)" xlink:href="#linear-gradient-bomb-9"/><linearGradient id="linear-gradient-29-bomb-9" x1="728.57" y1="3185.2" x2="1028.83" y2="3110.48" xlink:href="#linear-gradient-bomb-9"/><linearGradient id="linear-gradient-30-bomb-9" x1="779.72" y1="3216.23" x2="794.25" y2="3113.84" xlink:href="#linear-gradient-bomb-9"/><linearGradient id="linear-gradient-31-bomb-9" x1="698.86" y1="3104.13" x2="1013.42" y2="3141.96" xlink:href="#linear-gradient-bomb-9"/><linearGradient id="linear-gradient-32-bomb-9" x1="661.81" y1="3133.36" x2="984.25" y2="3053.12" xlink:href="#linear-gradient-bomb-9"/><linearGradient id="linear-gradient-33-bomb-9" x1="834.75" y1="3243.84" x2="864.85" y2="3243.84" xlink:href="#linear-gradient-bomb-9"/></defs><path id="background_bomb-9" class="cls-28_bomb-9 targetColor" d="M88.08,178.07c1.96,5.43,6.38,9.53,9.83,14.19,3.45,4.66,5.89,10.93,3.33,16.11-1.52,3.07-4.5,5.1-7.37,6.99l-23.62,15.64c14.66,9.18,20.48,28.36,18.58,45.56-1.9,17.19-10.07,32.97-18.07,48.28l-18.02,34.4c16.64-12.92,42.71-7,56.75,8.71,14.04,15.72,17.95,38.23,16.68,59.27,51.95-38.36,125.16-27.33,163.52,24.62.02.02.03.04.05.06,21.07-41.31,71.64-57.72,112.95-36.65,3.45,1.76,6.78,3.76,9.96,5.98-2.91-20.11-2.53-40.55,1.11-60.54,1.73-9.48,4.31-19.07,9.95-26.88,5.64-7.81,14.91-13.57,24.51-12.77-21.17-16.01-31.52-43.66-30.82-70.19.7-26.54,11.27-51.99,25.47-74.41-12.44-1.64-19.99-15.23-20.83-27.75-.84-12.52,2.94-24.9,3.28-37.44-58.57.33-116.67-10.48-171.21-31.85-9.11-3.57-18.67-7.93-23.8-16.23-2.62-4.24-5.04-12.99-10.65-14.42-5.61-1.43-19.77,6.13-25.99,7.32-11.47,2.2-23.99,3.37-32.55,12.29-7.72,8.03-9.18,19.58-10.39,30.19-2.06,18.21-6.36,34.62-17.84,49.34-11.35,14.57-27.05,25.13-44.82,30.16Z" style="fill: rgb(207, 153, 119);"/><g id="effect_bomb-9"><g class="cls-38_bomb-9"><polygon class="cls-37_bomb-9 targetColor" points="211.9 53.4 226.66 154.87 218.83 22.49 211.9 53.4" style="fill: rgb(207, 153, 119);"/><polygon class="cls-37_bomb-9 targetColor" points="235.96 89.77 232.33 152.14 243.88 72.17 235.96 89.77" style="fill: rgb(207, 153, 119);"/><polygon class="cls-37_bomb-9 targetColor" points="89.61 278.19 165 263.4 66.23 274.15 89.61 278.19" style="fill: rgb(207, 153, 119);"/><polygon class="cls-37_bomb-9 targetColor" points="115.94 258.84 162.75 259.26 102.48 253.57 115.94 258.84" style="fill: rgb(207, 153, 119);"/><polygon class="cls-37_bomb-9 targetColor" points="107.26 115.51 173.73 193.58 96.69 85.65 107.26 115.51" style="fill: rgb(207, 153, 119);"/><polygon class="cls-37_bomb-9 targetColor" points="146.99 133.51 177.08 188.26 144.32 114.39 146.99 133.51" style="fill: rgb(207, 153, 119);"/><polygon class="cls-37_bomb-9 targetColor" points="115.62 167.83 167.29 202.99 104.59 152 115.62 167.83" style="fill: rgb(207, 153, 119);"/><polygon class="cls-37_bomb-9 targetColor" points="126.08 415.67 196.18 340.84 97.6 429.53 126.08 415.67" style="fill: rgb(207, 153, 119);"/><polygon class="cls-37_bomb-9 targetColor" points="139.5 374.17 190.52 338.11 120.8 378.96 139.5 374.17" style="fill: rgb(207, 153, 119);"/><polygon class="cls-37_bomb-9 targetColor" points="422.79 279.11 347.4 264.32 446.16 275.07 422.79 279.11" style="fill: rgb(207, 153, 119);"/><polygon class="cls-37_bomb-9 targetColor" points="396.45 259.77 349.65 260.18 409.92 254.49 396.45 259.77" style="fill: rgb(207, 153, 119);"/><polygon class="cls-37_bomb-9 targetColor" points="386.32 416.59 316.21 341.76 414.79 430.46 386.32 416.59" style="fill: rgb(207, 153, 119);"/><polygon class="cls-37_bomb-9 targetColor" points="372.9 375.1 321.87 339.03 391.59 379.88 372.9 375.1" style="fill: rgb(207, 153, 119);"/><polygon class="cls-37_bomb-9 targetColor" points="177.14 401.47 206.25 346.18 162.65 414.22 177.14 401.47" style="fill: rgb(207, 153, 119);"/><polygon class="cls-37_bomb-9 targetColor" points="41.25 343.97 176.85 287.7 175.93 296.93 40.33 396.55 41.25 343.97" style="fill: rgb(207, 153, 119);"/><polygon class="cls-37_bomb-9 targetColor" points="253.41 349.5 261.72 456.5 338.28 449.12 270.02 341.21 253.41 349.5" style="fill: rgb(207, 153, 119);"/><polygon class="cls-37_bomb-9 targetColor" points="327.21 302.46 467.43 387.33 460.05 339.35 331.82 292.32 327.21 302.46" style="fill: rgb(207, 153, 119);"/><polygon class="cls-37_bomb-9 targetColor" points="142.72 56.62 204.98 181.15 210.36 179.47 156.56 34.64 142.72 56.62" style="fill: rgb(207, 153, 119);"/><polygon class="cls-37_bomb-9 targetColor" points="68.69 195.68 166.24 226.82 165.55 234.42 59.01 225.43 68.69 195.68" style="fill: rgb(207, 153, 119);"/><polygon class="cls-37_bomb-9 targetColor" points="445.06 132.73 346.12 209.52 347.51 217.13 449.9 172.86 445.06 132.73" style="fill: rgb(207, 153, 119);"/></g></g><g id="bomb_bomb-9"><path class="cls-37_bomb-9 targetColor" d="M287.75,180.82c1.23-.57,2.76.1,4.01-.43.07.37.02.75-.12,1.09-.25.99-.87,1.84-1.73,2.39-.65.31-1.38.4-2.08.25-.88-.15-1.74-.28-1.64-1.28.17-.88.75-1.63,1.56-2.03Z" style="fill: rgb(207, 153, 119);"/><path class="cls-37_bomb-9 targetColor" d="M290.06,181.01c.72-.07,1.4-.36,1.96-.82.4-.41.73-.88.98-1.4.21-.35.36-.74.43-1.14.02-.08,0-.16-.05-.23-.06-.04-.14-.06-.21-.05h-1.2c-.79-.11-1.6-.13-2.39-.05-.93.21-1.7.87-2.05,1.76-.12.35-.2.71-.21,1.07-.03.22,0,.45.08.66.21.46.68.34,1.08.31.53-.02,1.06-.04,1.58-.12Z" style="fill: rgb(207, 153, 119);"/><path class="cls-37_bomb-9 targetColor" d="M289.14,176.8c-.07.33-.09.73.18.92.13.08.28.12.43.11,1,.13,2.02.08,3-.16.99-.26,1.82-.94,2.24-1.88.66-1.68-1.24-1.7-2.33-1.93-1-.32-2.1.04-2.72.88-.42.62-.69,1.32-.8,2.06Z" style="fill: rgb(207, 153, 119);"/><path class="cls-37_bomb-9 targetColor" d="M294.22,170.6c-.61.08-1.19.35-1.64.78-.44.33-.82.74-1.11,1.2-.29.48-.37,1.05-.23,1.59.03.11.1.21.18.29.1.06.21.09.33.1.59.07,1.18.13,1.78.16.36.03.73.01,1.09-.06.35-.11.68-.28.98-.48.55-.37,2.33-1.76,1.79-2.61-.2-.31-.86-.27-1.17-.36-.63-.32-1.31-.53-2.01-.61Z" style="fill: rgb(207, 153, 119);"/><path class="cls-1_bomb-9" d="M287.75,180.82c1.23-.57,2.76.1,4.01-.43.07.37.02.75-.12,1.09-.25.99-.87,1.84-1.73,2.39-.65.31-1.38.4-2.08.25-.88-.15-1.74-.28-1.64-1.28.17-.88.75-1.63,1.56-2.03Z"/><path class="cls-30_bomb-9" d="M290.06,181.01c.72-.07,1.4-.36,1.96-.82.4-.41.73-.88.98-1.4.21-.35.36-.74.43-1.14.02-.08,0-.16-.05-.23-.06-.04-.14-.06-.21-.05h-1.2c-.79-.11-1.6-.13-2.39-.05-.93.21-1.7.87-2.05,1.76-.12.35-.2.71-.21,1.07-.03.22,0,.45.08.66.21.46.68.34,1.08.31.53-.02,1.06-.04,1.58-.12Z"/><path class="cls-31_bomb-9" d="M289.14,176.8c-.07.33-.09.73.18.92.13.08.28.12.43.11,1,.13,2.02.08,3-.16.99-.26,1.82-.94,2.24-1.88.66-1.68-1.24-1.7-2.33-1.93-1-.32-2.1.04-2.72.88-.42.62-.69,1.32-.8,2.06Z"/><path class="cls-29_bomb-9" d="M294.22,170.6c-.61.08-1.19.35-1.64.78-.44.33-.82.74-1.11,1.2-.29.48-.37,1.05-.23,1.59.03.11.1.21.18.29.1.06.21.09.33.1.59.07,1.18.13,1.78.16.36.03.73.01,1.09-.06.35-.11.68-.28.98-.48.55-.37,2.33-1.76,1.79-2.61-.2-.31-.86-.27-1.17-.36-.63-.32-1.31-.53-2.01-.61Z"/><path class="cls-37_bomb-9 targetColor" d="M296.54,169.64c1.33.29,2.15,1.74,3.47,2.07-.17.34-.43.62-.76.82-.79.64-1.8.95-2.82.87-.7-.14-1.34-.51-1.81-1.05-.61-.65-1.23-1.27-.52-1.99.66-.6,1.55-.87,2.43-.72Z" style="fill: rgb(207, 153, 119);"/><path class="cls-37_bomb-9 targetColor" d="M298.27,171.18c.62.37,1.34.55,2.06.52.57-.08,1.13-.26,1.64-.53.38-.15.73-.37,1.03-.65.06-.06.09-.14.09-.22-.02-.07-.07-.13-.14-.16-.33-.23-.66-.45-.97-.7-.56-.57-1.2-1.06-1.88-1.47-.87-.4-1.88-.34-2.69.17-.31.2-.58.44-.82.72-.16.16-.28.37-.34.59-.11.49.34.68.68.89s.88.58,1.34.84Z" style="fill: rgb(207, 153, 119);"/><path class="cls-37_bomb-9 targetColor" d="M300.09,167.27c-.25.21-.52.52-.41.82.06.14.15.26.27.34.72.7,1.57,1.25,2.5,1.64.94.39,2.02.34,2.92-.15,1.54-.94.04-2.1-.7-2.94-.61-.85-1.7-1.23-2.7-.93-.71.25-1.36.67-1.88,1.21Z" style="fill: rgb(207, 153, 119);"/><path class="cls-37_bomb-9 targetColor" d="M307.87,165.35c-.54-.3-1.16-.42-1.77-.36-.56,0-1.12.1-1.64.3-.5.21-.9.62-1.1,1.13-.05.1-.06.22-.04.33.04.11.11.21.2.29.43.41.87.82,1.32,1.2.27.25.58.45.91.61.34.13.71.2,1.07.2.66.04,2.93,0,3.01-1.01,0-.36-.52-.73-.71-.99-.42-.54-.64-1.29-1.25-1.7Z" style="fill: rgb(207, 153, 119);"/><path class="cls-35_bomb-9" d="M296.54,169.64c1.33.29,2.15,1.74,3.47,2.07-.17.34-.43.62-.76.82-.79.64-1.8.95-2.82.87-.7-.14-1.34-.51-1.81-1.05-.61-.65-1.23-1.27-.52-1.99.66-.6,1.55-.87,2.43-.72Z"/><path class="cls-36_bomb-9" d="M298.27,171.18c.62.37,1.34.55,2.06.52.57-.08,1.13-.26,1.64-.53.38-.15.73-.37,1.03-.65.06-.06.09-.14.09-.22-.02-.07-.07-.13-.14-.16-.33-.23-.66-.45-.97-.7-.56-.57-1.2-1.06-1.88-1.47-.87-.4-1.88-.34-2.69.17-.31.2-.58.44-.82.72-.16.16-.28.37-.34.59-.11.49.34.68.68.89s.88.58,1.34.84Z"/><path class="cls-34_bomb-9" d="M300.09,167.27c-.25.21-.52.52-.41.82.06.14.15.26.27.34.72.7,1.57,1.25,2.5,1.64.94.39,2.02.34,2.92-.15,1.54-.94.04-2.1-.7-2.94-.61-.85-1.7-1.23-2.7-.93-.71.25-1.36.67-1.88,1.21Z"/><path class="cls-32_bomb-9" d="M307.87,165.35c-.54-.3-1.16-.42-1.77-.36-.56,0-1.12.1-1.64.3-.5.21-.9.62-1.1,1.13-.05.1-.06.22-.04.33.04.11.11.21.2.29.43.41.87.82,1.32,1.2.27.25.58.45.91.61.34.13.71.2,1.07.2.66.04,2.93,0,3.01-1.01,0-.36-.52-.73-.71-.99-.42-.54-.64-1.29-1.25-1.7Z"/><path class="cls-37_bomb-9 targetColor" d="M310.17,164.64c1.24.56,1.74,2.15,2.97,2.74-.23.29-.55.51-.9.63-.91.46-1.96.56-2.94.28-.66-.28-1.21-.77-1.56-1.39-.47-.75-.93-1.49-.1-2.06.77-.45,1.7-.52,2.53-.2Z" style="fill: rgb(207, 153, 119);"/><path class="cls-37_bomb-9 targetColor" d="M311.56,166.51c.53.49,1.2.82,1.92.93.57.03,1.15-.03,1.7-.2.4-.07.79-.21,1.14-.43.07-.04.12-.11.13-.19,0-.08-.04-.14-.1-.2-.28-.29-.56-.57-.82-.88-.44-.67-.96-1.28-1.55-1.83-.77-.57-1.78-.71-2.68-.38-.34.14-.66.32-.94.55-.19.13-.34.3-.45.5-.2.46.2.74.49,1.02s.75.75,1.16,1.09Z" style="fill: rgb(207, 153, 119);"/><path class="cls-37_bomb-9 targetColor" d="M314.11,163.04c-.29.16-.61.42-.57.75.03.15.1.28.2.39.56.84,1.28,1.56,2.1,2.14.85.58,1.91.74,2.89.45,1.7-.61.46-2.06-.09-3.02-.42-.96-1.41-1.55-2.46-1.46-.74.09-1.45.35-2.07.75Z" style="fill: rgb(207, 153, 119);"/><path class="cls-37_bomb-9 targetColor" d="M322.12,162.75c-.46-.4-1.03-.65-1.64-.71-.54-.1-1.1-.1-1.64,0-.55.1-1.03.41-1.34.88-.06.09-.1.21-.1.32.02.12.07.23.14.32.34.49.69.97,1.06,1.43.21.31.47.59.76.82.31.19.65.33,1.01.42.64.17,2.87.59,3.15-.38.1-.35-.37-.82-.5-1.11-.17-.71-.48-1.38-.9-1.98Z" style="fill: rgb(207, 153, 119);"/><path class="cls-33_bomb-9" d="M310.17,164.64c1.24.56,1.74,2.15,2.97,2.74-.23.29-.55.51-.9.63-.91.46-1.96.56-2.94.28-.66-.28-1.21-.77-1.56-1.39-.47-.75-.93-1.49-.1-2.06.77-.45,1.7-.52,2.53-.2Z"/><path class="cls-13_bomb-9" d="M311.56,166.51c.53.49,1.2.82,1.92.93.57.03,1.15-.03,1.7-.2.4-.07.79-.21,1.14-.43.07-.04.12-.11.13-.19,0-.08-.04-.14-.1-.2-.28-.29-.56-.57-.82-.88-.44-.67-.96-1.28-1.55-1.83-.77-.57-1.78-.71-2.68-.38-.34.14-.66.32-.94.55-.19.13-.34.3-.45.5-.2.46.2.74.49,1.02s.75.75,1.16,1.09Z"/><path class="cls-10_bomb-9" d="M314.11,163.04c-.29.16-.61.42-.57.75.03.15.1.28.2.39.56.84,1.28,1.56,2.1,2.14.85.58,1.91.74,2.89.45,1.7-.61.46-2.06-.09-3.02-.42-.96-1.41-1.55-2.46-1.46-.74.09-1.45.35-2.07.75Z"/><path class="cls-11_bomb-9" d="M322.12,162.75c-.46-.4-1.03-.65-1.64-.71-.54-.1-1.1-.1-1.64,0-.55.1-1.03.41-1.34.88-.06.09-.1.21-.1.32.02.12.07.23.14.32.34.49.69.97,1.06,1.43.21.31.47.59.76.82.31.19.65.33,1.01.42.64.17,2.87.59,3.15-.38.1-.35-.37-.82-.5-1.11-.17-.71-.48-1.38-.9-1.98Z"/><path class="cls-37_bomb-9 targetColor" d="M324,162.05c1.24.55,1.75,2.14,2.97,2.74-.23.29-.55.51-.9.62-.91.47-1.96.57-2.94.29-.65-.29-1.2-.77-1.56-1.39-.48-.76-.94-1.5-.1-2.06.76-.45,1.7-.53,2.52-.2Z" style="fill: rgb(207, 153, 119);"/><path class="cls-37_bomb-9 targetColor" d="M325.38,163.92c.53.49,1.2.81,1.91.93.57.03,1.14-.03,1.7-.19.4-.07.79-.21,1.14-.43.07-.04.12-.11.14-.2-.01-.07-.05-.14-.11-.19-.27-.29-.55-.57-.82-.88-.44-.67-.96-1.28-1.55-1.83-.77-.57-1.78-.71-2.68-.38-.34.14-.65.32-.94.55-.19.13-.34.3-.44.5-.2.47.2.75.48,1.02s.76.75,1.17,1.09Z" style="fill: rgb(207, 153, 119);"/><path class="cls-37_bomb-9 targetColor" d="M326.38,161.09c-.18.28-.36.64-.18.92.09.12.21.21.34.27.88.5,1.85.83,2.85.97,1.02.14,2.04-.19,2.78-.89,1.24-1.3-.51-2.04-1.43-2.66-.81-.67-1.95-.75-2.85-.2-.62.41-1.14.96-1.52,1.6Z" style="fill: rgb(207, 153, 119);"/><path class="cls-37_bomb-9 targetColor" d="M333.43,157.24c-.59-.15-1.22-.12-1.79.11-.54.14-1.04.38-1.48.7-.45.33-.75.82-.82,1.38-.01.12,0,.23.06.34.07.09.16.17.26.22.52.29,1.05.56,1.59.82.64.38,1.4.48,2.12.29.65-.13,2.83-.75,2.65-1.74-.07-.35-.69-.57-.94-.77-.57-.46-.93-1.08-1.64-1.34Z" style="fill: rgb(207, 153, 119);"/><path class="cls-12_bomb-9" d="M324,162.05c1.24.55,1.75,2.14,2.97,2.74-.23.29-.55.51-.9.62-.91.47-1.96.57-2.94.29-.65-.29-1.2-.77-1.56-1.39-.48-.76-.94-1.5-.1-2.06.76-.45,1.7-.53,2.52-.2Z"/><path class="cls-21_bomb-9" d="M325.38,163.92c.53.49,1.2.81,1.91.93.57.03,1.14-.03,1.7-.19.4-.07.79-.21,1.14-.43.07-.04.12-.11.14-.2-.01-.07-.05-.14-.11-.19-.27-.29-.55-.57-.82-.88-.44-.67-.96-1.28-1.55-1.83-.77-.57-1.78-.71-2.68-.38-.34.14-.65.32-.94.55-.19.13-.34.3-.44.5-.2.47.2.75.48,1.02s.76.75,1.17,1.09Z"/><path class="cls-17_bomb-9" d="M326.38,161.09c-.18.28-.36.64-.18.92.09.12.21.21.34.27.88.5,1.85.83,2.85.97,1.02.14,2.04-.19,2.78-.89,1.24-1.3-.51-2.04-1.43-2.66-.81-.67-1.95-.75-2.85-.2-.62.41-1.14.96-1.52,1.6Z"/><path class="cls-15_bomb-9" d="M333.43,157.24c-.59-.15-1.22-.12-1.79.11-.54.14-1.04.38-1.48.7-.45.33-.75.82-.82,1.38-.01.12,0,.23.06.34.07.09.16.17.26.22.52.29,1.05.56,1.59.82.64.38,1.4.48,2.12.29.65-.13,2.83-.75,2.65-1.74-.07-.35-.69-.57-.94-.77-.57-.46-.93-1.08-1.64-1.34Z"/><path class="cls-37_bomb-9 targetColor" d="M334.37,155.61c1.36-.12,2.58,1.02,3.94.93-.07.37-.23.71-.48.98-.57.86-1.45,1.46-2.46,1.69-.71.08-1.43-.09-2.05-.46-.78-.43-1.55-.82-1.09-1.74.46-.77,1.25-1.29,2.14-1.4Z" style="fill: rgb(207, 153, 119);"/><path class="cls-37_bomb-9 targetColor" d="M336.49,156.56c.7.17,1.44.13,2.12-.11.51-.25.98-.59,1.38-1,.33-.25.61-.56.82-.93.04-.07.04-.16,0-.24,0-.07-.11-.09-.19-.11-.38-.12-.75-.23-1.13-.38-.71-.36-1.46-.64-2.24-.82-.95-.12-1.9.24-2.52.97-.23.28-.41.6-.56.93-.1.21-.15.43-.14.66.05.5.53.55.92.65.51.11,1.01.27,1.53.37Z" style="fill: rgb(207, 153, 119);"/><path class="cls-37_bomb-9 targetColor" d="M335.98,153.62c0,.33,0,.74.29.88.14.06.29.08.43.07,1.01.01,2.02-.17,2.96-.54.95-.37,1.69-1.15,2-2.13.45-1.74-1.44-1.54-2.56-1.64-1.03-.19-2.07.3-2.59,1.21-.34.66-.53,1.4-.54,2.15Z" style="fill: rgb(207, 153, 119);"/><path class="cls-37_bomb-9 targetColor" d="M340.23,146.85c-.59.16-1.12.5-1.52.97-.39.38-.72.84-.95,1.34-.23.52-.23,1.12,0,1.64.04.11.11.2.2.26.11.05.23.07.34.06.59,0,1.19,0,1.78-.06.37,0,.73-.07,1.07-.19.34-.15.65-.35.92-.6.5-.43,2.1-2.04,1.47-2.82-.24-.28-.88-.16-1.2-.21-.67-.26-1.39-.39-2.11-.38Z" style="fill: rgb(207, 153, 119);"/><path class="cls-14_bomb-9" d="M334.37,155.61c1.36-.12,2.58,1.02,3.94.93-.07.37-.23.71-.48.98-.57.86-1.45,1.46-2.46,1.69-.71.08-1.43-.09-2.05-.46-.78-.43-1.55-.82-1.09-1.74.46-.77,1.25-1.29,2.14-1.4Z"/><path class="cls-20_bomb-9" d="M336.49,156.56c.7.17,1.44.13,2.12-.11.51-.25.98-.59,1.38-1,.33-.25.61-.56.82-.93.04-.07.04-.16,0-.24,0-.07-.11-.09-.19-.11-.38-.12-.75-.23-1.13-.38-.71-.36-1.46-.64-2.24-.82-.95-.12-1.9.24-2.52.97-.23.28-.41.6-.56.93-.1.21-.15.43-.14.66.05.5.53.55.92.65.51.11,1.01.27,1.53.37Z"/><path class="cls-16_bomb-9" d="M335.98,153.62c0,.33,0,.74.29.88.14.06.29.08.43.07,1.01.01,2.02-.17,2.96-.54.95-.37,1.69-1.15,2-2.13.45-1.74-1.44-1.54-2.56-1.64-1.03-.19-2.07.3-2.59,1.21-.34.66-.53,1.4-.54,2.15Z"/><path class="cls-23_bomb-9" d="M340.23,146.85c-.59.16-1.12.5-1.52.97-.39.38-.72.84-.95,1.34-.23.52-.23,1.12,0,1.64.04.11.11.2.2.26.11.05.23.07.34.06.59,0,1.19,0,1.78-.06.37,0,.73-.07,1.07-.19.34-.15.65-.35.92-.6.5-.43,2.1-2.04,1.47-2.82-.24-.28-.88-.16-1.2-.21-.67-.26-1.39-.39-2.11-.38Z"/><path class="cls-37_bomb-9 targetColor" d="M340.79,144.52c1.26-.51,2.76.23,4.04-.24.04.37-.02.74-.18,1.08-.3.98-.96,1.8-1.84,2.31-.66.28-1.39.33-2.08.16-.88-.19-1.73-.36-1.55-1.36.21-.86.8-1.58,1.61-1.95Z" style="fill: rgb(207, 153, 119);"/><path class="cls-37_bomb-9 targetColor" d="M343.09,144.83c.72-.04,1.42-.29,2-.72.42-.39.77-.85,1.04-1.35.24-.34.4-.72.48-1.12.03-.08.01-.16-.04-.23-.06-.04-.14-.06-.21-.06-.39,0-.82,0-1.19-.04-.79-.15-1.59-.2-2.39-.16-.94.16-1.74.77-2.13,1.64-.14.34-.23.69-.26,1.06-.04.22-.02.45.05.67.19.47.67.38,1.07.36s1.06,0,1.58-.05Z" style="fill: rgb(207, 153, 119);"/><path class="cls-37_bomb-9 targetColor" d="M341.75,142.15c.07.32.2.7.53.77.15.01.3-.01.43-.07.97-.28,1.88-.75,2.68-1.37.81-.63,1.29-1.6,1.3-2.62-.07-1.8-1.82-1.06-2.91-.82-1.04.13-1.89.89-2.14,1.91-.13.73-.1,1.48.1,2.2Z" style="fill: rgb(207, 153, 119);"/><path class="cls-37_bomb-9 targetColor" d="M343.9,134.41c-.52.32-.93.8-1.18,1.36-.27.48-.44,1.01-.52,1.56-.07.55.09,1.11.43,1.54.07.09.17.16.28.19.11.03.23.03.34,0,.57-.17,1.13-.36,1.69-.57.35-.11.68-.27.97-.49.28-.23.52-.51.7-.82.35-.56,1.43-2.56.59-3.11-.3-.2-.89.1-1.21.14-.71-.06-1.42.02-2.1.21Z" style="fill: rgb(207, 153, 119);"/><path class="cls-19_bomb-9" d="M340.79,144.52c1.26-.51,2.76.23,4.04-.24.04.37-.02.74-.18,1.08-.3.98-.96,1.8-1.84,2.31-.66.28-1.39.33-2.08.16-.88-.19-1.73-.36-1.55-1.36.21-.86.8-1.58,1.61-1.95Z"/><path class="cls-22_bomb-9" d="M343.09,144.83c.72-.04,1.42-.29,2-.72.42-.39.77-.85,1.04-1.35.24-.34.4-.72.48-1.12.03-.08.01-.16-.04-.23-.06-.04-.14-.06-.21-.06-.39,0-.82,0-1.19-.04-.79-.15-1.59-.2-2.39-.16-.94.16-1.74.77-2.13,1.64-.14.34-.23.69-.26,1.06-.04.22-.02.45.05.67.19.47.67.38,1.07.36s1.06,0,1.58-.05Z"/><path class="cls-18_bomb-9" d="M341.75,142.15c.07.32.2.7.53.77.15.01.3-.01.43-.07.97-.28,1.88-.75,2.68-1.37.81-.63,1.29-1.6,1.3-2.62-.07-1.8-1.82-1.06-2.91-.82-1.04.13-1.89.89-2.14,1.91-.13.73-.1,1.48.1,2.2Z"/><path class="cls-25_bomb-9" d="M343.9,134.41c-.52.32-.93.8-1.18,1.36-.27.48-.44,1.01-.52,1.56-.07.55.09,1.11.43,1.54.07.09.17.16.28.19.11.03.23.03.34,0,.57-.17,1.13-.36,1.69-.57.35-.11.68-.27.97-.49.28-.23.52-.51.7-.82.35-.56,1.43-2.56.59-3.11-.3-.2-.89.1-1.21.14-.71-.06-1.42.02-2.1.21Z"/><path class="cls-37_bomb-9 targetColor" d="M344.62,131.58c1.15-.73,2.75-.28,3.92-.97.1.36.1.74,0,1.1-.12,1.01-.62,1.94-1.39,2.6-.6.39-1.31.58-2.02.52-.89,0-1.77-.04-1.77-1.05.06-.89.52-1.71,1.26-2.21Z" style="fill: rgb(207, 153, 119);"/><path class="cls-37_bomb-9 targetColor" d="M346.93,131.45c.7-.17,1.34-.54,1.83-1.07.34-.46.61-.97.78-1.52.17-.37.26-.78.27-1.19,0-.08-.02-.16-.08-.22-.07-.03-.15-.03-.22,0-.38.07-.78.14-1.17.18-.8,0-1.6.09-2.38.28-.9.32-1.58,1.08-1.8,2.01-.07.36-.1.72-.07,1.09,0,.23.06.45.17.66.27.42.72.24,1.11.16s1.04-.22,1.55-.38Z" style="fill: rgb(207, 153, 119);"/><path class="cls-37_bomb-9 targetColor" d="M345.14,129.06c.12.3.33.66.66.66.15,0,.29-.06.42-.15.9-.45,1.72-1.07,2.39-1.83.68-.77.98-1.8.82-2.81-.39-1.76-1.98-.71-3.01-.29-1.01.3-1.71,1.21-1.75,2.26,0,.74.16,1.48.48,2.15Z" style="fill: rgb(207, 153, 119);"/><path class="cls-37_bomb-9 targetColor" d="M345.84,121.07c-.46.41-.78.95-.91,1.55-.18.53-.26,1.08-.24,1.64.03.56.28,1.08.7,1.44.09.07.19.12.3.14.12,0,.23-.04.34-.11.52-.27,1.05-.56,1.56-.86.32-.18.61-.4.87-.66.23-.28.42-.6.54-.95.25-.61.94-2.77,0-3.17-.34-.15-.86.26-1.16.35-.7.09-1.38.3-2,.63Z" style="fill: rgb(207, 153, 119);"/><path class="cls-9_bomb-9" d="M344.62,131.58c1.15-.73,2.75-.28,3.92-.97.1.36.1.74,0,1.1-.12,1.01-.62,1.94-1.39,2.6-.6.39-1.31.58-2.02.52-.89,0-1.77-.04-1.77-1.05.06-.89.52-1.71,1.26-2.21Z"/><path class="cls-26_bomb-9" d="M346.93,131.45c.7-.17,1.34-.54,1.83-1.07.34-.46.61-.97.78-1.52.17-.37.26-.78.27-1.19,0-.08-.02-.16-.08-.22-.07-.03-.15-.03-.22,0-.38.07-.78.14-1.17.18-.8,0-1.6.09-2.38.28-.9.32-1.58,1.08-1.8,2.01-.07.36-.1.72-.07,1.09,0,.23.06.45.17.66.27.42.72.24,1.11.16s1.04-.22,1.55-.38Z"/><path class="cls-24_bomb-9" d="M345.14,129.06c.12.3.33.66.66.66.15,0,.29-.06.42-.15.9-.45,1.72-1.07,2.39-1.83.68-.77.98-1.8.82-2.81-.39-1.76-1.98-.71-3.01-.29-1.01.3-1.71,1.21-1.75,2.26,0,.74.16,1.48.48,2.15Z"/><path class="cls-8_bomb-9" d="M345.84,121.07c-.46.41-.78.95-.91,1.55-.18.53-.26,1.08-.24,1.64.03.56.28,1.08.7,1.44.09.07.19.12.3.14.12,0,.23-.04.34-.11.52-.27,1.05-.56,1.56-.86.32-.18.61-.4.87-.66.23-.28.42-.6.54-.95.25-.61.94-2.77,0-3.17-.34-.15-.86.26-1.16.35-.7.09-1.38.3-2,.63Z"/><path class="cls-37_bomb-9 targetColor" d="M248.8,173.93v11.68l61.5,31.06,9.53-5.54s3.08-4.3-4-10.15c-7.08-5.85-41.51-29.21-61.8-30.75,0,0-4.92,0-5.23,3.69Z" style="fill: rgb(207, 153, 119);"/><path class="cls-4_bomb-9" d="M319.84,211.14l-3.21,1.86-6.32,3.67-61.49-31.05v-11.69c.3-3.69,5.23-3.69,5.23-3.69,20.3,1.53,54.73,24.91,61.81,30.75,7.08,5.84,4,10.15,4,10.15Z"/><path class="cls-6_bomb-9" d="M319.84,211.14l-3.21,1.86h0c-19.14-24.45-50.97-34.4-53.74-34.13-2.77.27-1.64,5.07-1.64,5.07l-12.45.2v-10.21c.3-3.69,5.23-3.69,5.23-3.69,20.3,1.53,54.73,24.91,61.81,30.75,7.08,5.84,4.01,10.15,4.01,10.15Z"/><circle class="cls-37_bomb-9 targetColor" cx="249.7" cy="254.15" r="71.05" style="fill: rgb(207, 153, 119);"/><path class="cls-7_bomb-9" d="M320.77,254.15c-.02,39.22-31.83,71.01-71.05,70.99-39.22-.02-71.01-31.83-70.99-71.05.02-39.22,31.83-71.01,71.05-70.99,9.15,0,18.21,1.78,26.69,5.22,26.79,10.89,44.3,36.92,44.3,65.84Z"/><path class="cls-5_bomb-9" d="M208.83,287.08c1.84,20.91,7.08,27.03,11.43,31.77-35.69-16.34-51.38-58.52-35.04-94.21,15.82-34.55,56.01-50.55,91.25-36.32.48.37,2.16.6,2.63.98,0,0-12.48.28-21.06,4.54-21.96,10.88-53.96,39.34-49.2,93.24Z"/><path class="cls-27_bomb-9 targetColor" d="M322.27,132.57c5.46-1.48,11.75-2.84,16.42.35,3.34,2.29,4.91,6.36,6.06,10.26,2.1-2.65,4.55-5.49,7.9-5.91,2.29-.29,4.54.64,6.66,1.55l11.76,5.01c-4.91-4.78-8.77-11.8-6.77-18.38,1.86-6.14,8.02-9.76,13.68-12.79-9.35,4.66-20.71.86-25.37-8.5-1.33-2.68-2.01-5.64-1.98-8.63-.04,3.55-4.61,10.65-7.61,12.52-3.62,2.3-12.43,4.38-24.42-7.31,15.37,16.62,12.76,27.32,3.67,31.82Z" style="fill: rgb(207, 153, 119);"/><path class="cls-37_bomb-9 targetColor" d="M334.76,127.28c2.77-.75,5.95-1.44,8.32.18,1.7,1.16,2.5,3.23,3.07,5.2,1.06-1.34,2.31-2.78,4.01-3,1.17-.04,2.34.23,3.37.78l5.96,2.55c-2.51-2.46-4.45-5.98-3.43-9.32.94-3.11,4.1-4.91,6.93-6.48-4.75,2.36-10.51.42-12.87-4.33-.67-1.35-1.01-2.84-1-4.35,0,1.8-2.33,5.38-3.85,6.35-1.83,1.17-6.3,2.22-12.38-3.7,7.79,8.41,6.5,13.85,1.86,16.13Z" style="fill: rgb(207, 153, 119);"/><path class="cls-2_bomb-9 targetColor" d="M334.76,127.28c2.77-.75,5.95-1.44,8.32.18,1.7,1.16,2.5,3.23,3.07,5.2,1.06-1.34,2.31-2.78,4.01-3,1.17-.04,2.34.23,3.37.78l5.96,2.55c-2.51-2.46-4.45-5.98-3.43-9.32.94-3.11,4.1-4.91,6.93-6.48-4.75,2.36-10.51.42-12.87-4.33-.67-1.35-1.01-2.84-1-4.35,0,1.8-2.33,5.38-3.85,6.35-1.83,1.17-6.3,2.22-12.38-3.7,7.79,8.41,6.5,13.85,1.86,16.13Z" style="fill: rgb(207, 153, 119);"/><path class="cls-3_bomb-9" d="M334.76,127.28c2.77-.75,5.95-1.44,8.32.18,1.7,1.16,2.5,3.23,3.07,5.2,1.06-1.34,2.31-2.78,4.01-3,1.17-.04,2.34.23,3.37.78l5.96,2.55c-2.51-2.46-4.45-5.98-3.43-9.32.94-3.11,4.1-4.91,6.93-6.48-4.75,2.36-10.51.42-12.87-4.33-.67-1.35-1.01-2.84-1-4.35,0,1.8-2.33,5.38-3.85,6.35-1.83,1.17-6.3,2.22-12.38-3.7,7.79,8.41,6.5,13.85,1.86,16.13Z"/></g></svg>