<svg id="_0030_construction_site" data-name="0030_construction_site" xmlns="http://www.w3.org/2000/svg" viewBox="0 0 500 500" data-imageid="construction-site-14" imageName="Construction Site" class="illustrations_image" style="width: 164px;"><defs><style>.cls-1_construction-site-14{fill:#ededf7;}.cls-2_construction-site-14,.cls-9_construction-site-14{fill:#ca5a00;}.cls-10_construction-site-14,.cls-3_construction-site-14{fill:#ff8522;}.cls-4_construction-site-14{fill:#68e1fd;}.cls-10_construction-site-14,.cls-5_construction-site-14{isolation:isolate;}.cls-5_construction-site-14{opacity:0.25;}.cls-6_construction-site-14{fill:#ffba93;}.cls-7_construction-site-14{fill:#f4a57d;}.cls-8_construction-site-14{fill:#fff;}.cls-9_construction-site-14{opacity:0.86;}.cls-10_construction-site-14{opacity:0.15;}.cls-11_construction-site-14{fill:#454859;}.cls-12_construction-site-14{fill:#ffc759;}</style></defs><path id="Base_construction-site-14" class="cls-1_construction-site-14" d="M17.06,287.39l204.57,118.1a17.16,17.16,0,0,0,17,0l236-134a9.57,9.57,0,0,0,.06-16.59L264.56,133.29a6.64,6.64,0,0,0-6.7,0L17,276A6.63,6.63,0,0,0,14.68,285,6.7,6.7,0,0,0,17.06,287.39Z"/><g id="Wooden_Planks_construction-site-14" data-name="Wooden Planks"><polyline class="cls-2_construction-site-14" points="126.15 313.99 141.07 305.19 136.98 300.8 125.47 308.31"/><polyline class="cls-2_construction-site-14" points="116.68 302.65 134.04 292.74 140.32 299.92 126.15 308.26"/><polygon class="cls-3_construction-site-14" points="126.15 308.26 116.68 302.65 116.68 308.26 126.15 313.99 126.15 308.26"/><polyline class="cls-2_construction-site-14" points="99.64 298.93 114.55 290.15 110.47 285.76 98.97 293.27"/><polyline class="cls-2_construction-site-14" points="90.17 287.62 107.53 277.7 113.81 284.88 99.64 293.23"/><polygon class="cls-3_construction-site-14" points="99.64 293.23 90.17 287.62 90.17 293.23 99.64 298.93 99.64 293.23"/><polyline class="cls-2_construction-site-14" points="72.93 283.78 87.85 275 83.76 270.6 72.26 278.11"/><polyline class="cls-2_construction-site-14" points="63.45 272.45 80.83 262.55 87.11 269.72 72.93 278.06"/><polygon class="cls-3_construction-site-14" points="72.93 278.06 63.45 272.45 63.45 278.06 72.93 283.78 72.93 278.06"/><polyline class="cls-2_construction-site-14" points="156.37 331.6 171.28 322.8 167.19 318.41 155.7 325.92"/><polyline class="cls-2_construction-site-14" points="146.89 320.26 164.26 310.37 170.54 317.53 156.37 325.87"/><polygon class="cls-3_construction-site-14" points="156.37 325.87 146.89 320.26 146.89 325.87 156.37 331.6 156.37 325.87"/><polyline class="cls-2_construction-site-14" points="231.81 312.4 216.9 303.61 220.99 299.22 232.48 306.73"/><polyline class="cls-2_construction-site-14" points="241.29 301.07 223.91 291.16 217.64 298.34 231.81 306.68"/><polygon class="cls-3_construction-site-14" points="231.81 306.68 241.29 301.07 241.29 306.68 231.81 312.4 231.81 306.68"/><polyline class="cls-2_construction-site-14" points="257.24 297.65 242.33 288.86 246.42 284.48 257.91 291.99"/><polyline class="cls-2_construction-site-14" points="266.72 286.32 249.35 276.42 243.07 283.6 257.24 291.94"/><polygon class="cls-3_construction-site-14" points="257.24 291.94 266.72 286.32 266.72 291.94 257.24 297.65 257.24 291.94"/><polyline class="cls-2_construction-site-14" points="285.07 280.86 270.14 272.07 274.23 267.68 285.74 275.19"/><polyline class="cls-2_construction-site-14" points="294.54 269.54 277.18 259.63 270.9 266.81 285.07 275.15"/><polygon class="cls-3_construction-site-14" points="285.07 275.15 294.54 269.54 294.54 275.15 285.07 280.86 285.07 275.15"/><polyline class="cls-2_construction-site-14" points="201.97 330.31 187.05 321.52 191.14 317.12 202.63 324.64"/><polyline class="cls-2_construction-site-14" points="211.43 318.98 194.07 309.07 187.79 316.25 201.97 324.59"/><polygon class="cls-3_construction-site-14" points="201.97 324.59 211.43 318.98 211.43 324.59 201.97 330.31 201.97 324.59"/><path class="cls-4_construction-site-14 targetColor" d="M67.54,261.7V265L180.06,330.3s116.1-68.76,116-69.12,0-3.62,0-3.62" style="fill: rgb(207, 153, 119);"/><path class="cls-5_construction-site-14" d="M67.54,261.7V265L180.06,330.3s116.1-68.76,116-69.12,0-3.62,0-3.62"/><polygon class="cls-4_construction-site-14 targetColor" points="180.37 326.22 296.08 257.57 181.94 191.67 67.54 261.7 180.37 326.22" style="fill: rgb(207, 153, 119);"/><polyline class="cls-2_construction-site-14" points="146.17 214.16 146.17 218.62 245.24 275.25 265.49 263.86 265.49 259.27"/><polygon class="cls-3_construction-site-14" points="265.49 259.27 246.16 270.71 146.17 214.16 166.79 201.95 265.49 259.27"/><polyline class="cls-2_construction-site-14" points="144.36 209.26 144.36 213.72 243.41 270.34 263.67 258.96 263.67 254.36"/><polygon class="cls-3_construction-site-14" points="263.67 254.36 244.34 265.8 144.36 209.26 164.97 197.05 263.67 254.36"/><polyline class="cls-2_construction-site-14" points="119.94 229.13 119.94 233.59 219 290.2 239.24 278.83 239.24 274.22"/><polygon class="cls-3_construction-site-14" points="239.24 274.22 219.91 285.68 119.94 229.13 140.55 216.91 239.24 274.22"/><polyline class="cls-2_construction-site-14" points="118.12 224.22 118.12 228.68 217.18 285.29 237.42 273.92 237.42 269.31"/><polygon class="cls-3_construction-site-14" points="237.42 269.31 218.09 280.77 118.12 224.22 138.73 212.01 237.42 269.31"/><polyline class="cls-2_construction-site-14" points="96.21 245.12 96.21 249.58 195.27 306.19 215.51 294.82 215.51 290.21"/><polygon class="cls-3_construction-site-14" points="215.51 290.21 196.18 301.67 96.21 245.12 116.82 232.9 215.51 290.21"/><polyline class="cls-2_construction-site-14" points="95.59 239.71 95.59 244.17 194.65 300.77 214.89 289.41 214.89 284.8"/><polygon class="cls-3_construction-site-14" points="214.89 284.8 195.58 296.25 95.59 239.71 116.21 227.5 214.89 284.8"/><polyline class="cls-2_construction-site-14" points="143.08 203.89 143.08 208.35 242.14 264.96 262.38 253.59 262.38 248.99"/><polygon class="cls-3_construction-site-14" points="262.38 248.99 243.06 260.43 143.08 203.89 163.7 191.67 262.38 248.99"/><polyline class="cls-2_construction-site-14" points="141.27 198.99 141.27 203.45 240.32 260.06 260.57 248.69 260.57 244.08"/><polygon class="cls-3_construction-site-14" points="260.57 244.08 241.24 255.52 141.27 198.99 161.88 186.76 260.57 244.08"/><polyline class="cls-2_construction-site-14" points="117.54 219.69 117.54 224.15 216.6 280.77 236.84 269.39 236.84 264.79"/><polygon class="cls-3_construction-site-14" points="236.84 264.79 217.51 276.23 117.54 219.69 138.15 207.48 236.84 264.79"/><polyline class="cls-2_construction-site-14" points="115.72 214.78 115.72 219.24 214.78 275.86 235.02 264.48 235.02 259.88"/><polygon class="cls-3_construction-site-14" points="235.02 259.88 215.7 271.33 115.72 214.78 136.34 202.57 235.02 259.88"/><polyline class="cls-2_construction-site-14" points="143.08 198.99 143.08 203.45 242.14 260.06 262.38 248.69 262.38 244.08"/><polygon class="cls-3_construction-site-14" points="262.38 244.08 243.06 255.52 143.08 198.99 163.7 186.76 262.38 244.08"/><polyline class="cls-2_construction-site-14" points="115.38 215.35 115.38 219.81 214.44 276.42 234.69 265.05 234.69 260.44"/><polygon class="cls-3_construction-site-14" points="234.69 260.44 215.36 271.9 115.38 215.35 136 203.14 234.69 260.44"/><polyline class="cls-2_construction-site-14" points="113.56 210.44 113.56 214.9 212.62 271.51 232.86 260.14 232.86 255.53"/><polygon class="cls-3_construction-site-14" points="232.86 255.53 213.55 266.99 113.56 210.44 134.17 198.23 232.86 255.53"/></g><g id="Pipes_construction-site-14"><ellipse class="cls-6_construction-site-14" cx="302.46" cy="311.68" rx="6.72" ry="10.74" transform="translate(-34.25 37.36) rotate(-6.69)"/><ellipse class="cls-7_construction-site-14" cx="317.76" cy="322.42" rx="6.72" ry="10.74" transform="translate(-35.4 39.21) rotate(-6.69)"/><polyline class="cls-6_construction-site-14" points="229.57 344.08 299.08 301.88 306.04 321.35 234.17 364.79"/><ellipse class="cls-8_construction-site-14" cx="231.36" cy="354.63" rx="6.72" ry="10.74" transform="translate(-39.74 29.37) rotate(-6.69)"/><polyline class="cls-7_construction-site-14" points="244.87 354.8 314.38 312.61 321.34 332.08 249.46 375.53"/><ellipse class="cls-8_construction-site-14" cx="246.64" cy="365.36" rx="6.72" ry="10.74" transform="translate(-40.88 31.22) rotate(-6.69)"/><polyline class="cls-6_construction-site-14" points="243.09 332.67 312.6 290.47 319.56 309.94 247.68 353.39"/><ellipse class="cls-8_construction-site-14" cx="244.86" cy="343.22" rx="6.72" ry="10.74" transform="translate(-38.32 30.86) rotate(-6.69)"/><ellipse class="cls-6_construction-site-14" cx="315.98" cy="300.27" rx="6.72" ry="10.74" transform="translate(-32.83 38.86) rotate(-6.69)"/><ellipse class="cls-9_construction-site-14" cx="231.36" cy="354.63" rx="6.72" ry="10.74" transform="translate(-39.74 29.37) rotate(-6.69)"/><ellipse class="cls-9_construction-site-14" cx="246.64" cy="365.36" rx="6.72" ry="10.74" transform="translate(-40.88 31.22) rotate(-6.69)"/><ellipse class="cls-9_construction-site-14" cx="244.86" cy="343.22" rx="6.72" ry="10.74" transform="translate(-38.32 30.86) rotate(-6.69)"/></g><g id="Cone_construction-site-14"><path class="cls-2_construction-site-14" d="M409,279.15l27.56-16.35A4.21,4.21,0,0,0,438,257a4.27,4.27,0,0,0-1.34-1.4L413.9,240.8a7.09,7.09,0,0,0-7.8,0L379,259a4.22,4.22,0,0,0-1.14,5.85,4.15,4.15,0,0,0,1.32,1.25l21.54,12.93A8,8,0,0,0,409,279.15Z"/><path class="cls-2_construction-site-14" d="M409,276.68l27.56-16.35a4.21,4.21,0,0,0,1.48-5.77,4.27,4.27,0,0,0-1.34-1.4L413.9,238.33a7.08,7.08,0,0,0-7.8,0L379,256.55a4.22,4.22,0,0,0-1.14,5.85,4.15,4.15,0,0,0,1.32,1.25l21.54,12.93A8,8,0,0,0,409,276.68Z"/><path class="cls-3_construction-site-14" d="M404.38,211.17l-14.63,46.28s-3.57,11.74,18.38,10.55,19.05-12.08,19.05-12.08l-14.63-44.75"/><path class="cls-8_construction-site-14" d="M399,228.31s2.9,3,9.59,3c8.35,0,9.24-4.11,9.24-4.11l3.07,9.35s-2.2,5.28-12.36,5.11c-9.15-.15-12.73-3.44-12.73-3.44"/><path class="cls-8_construction-site-14" d="M393.53,246a21,21,0,0,0,14.83,5.88c10.86-.13,14.94-7.85,14.94-7.85l3.23,9.89s-4.66,7.23-18.06,8.19c-12.63.9-18.05-6.18-18.05-6.18"/><path class="cls-10_construction-site-14" d="M407.53,211.52H404.4L389.76,257.8s-3.32,10.94,16.21,10.62C406.4,249.44,407.35,230.49,407.53,211.52Z"/><ellipse class="cls-8_construction-site-14" cx="408.55" cy="211.52" rx="4.16" ry="2.38"/><ellipse class="cls-8_construction-site-14" cx="408.55" cy="211.52" rx="4.16" ry="2.38"/><ellipse class="cls-10_construction-site-14" cx="408.55" cy="211.52" rx="4.16" ry="2.38"/></g><g id="Sign_construction-site-14"><polyline class="cls-6_construction-site-14" points="210.2 157.06 207.9 155.65 207.9 147.48 266.13 112.42 268.87 113.53"/><polyline class="cls-2_construction-site-14" points="246.96 156.3 246.96 159.81 267.17 171.53 273.26 167.88 273.71 163.62"/><polygon class="cls-3_construction-site-14" points="253.53 151.97 273.71 163.62 267.57 167.96 246.96 156.3 253.53 151.97"/><polyline class="cls-2_construction-site-14" points="204.76 181.51 204.76 185.01 224.95 196.72 231.06 193.08 231.51 188.82"/><polygon class="cls-3_construction-site-14" points="211.34 177.16 231.51 188.82 225.36 193.15 204.76 181.51 211.34 177.16"/><path class="cls-6_construction-site-14" d="M259,126.86v33.63s1,1.77,4.44,0V125.05"/><path class="cls-6_construction-site-14" d="M215.34,151.81v33.58s1,1.77,4.43,0V150"/><polygon class="cls-3_construction-site-14" points="210.2 148.2 210.2 157.06 268.87 122.93 268.87 113.53 210.2 148.2"/></g><g id="Character_construction-site-14"><path class="cls-11_construction-site-14" d="M334.56,243.2s.58,9.15,1.45,10.16,9.89,4.24,11.32,6.7-1.57,9.31-8.4,7.62a73.32,73.32,0,0,1-17.6-7.62c-1.24-1,0-19.77,0-19.77Z"/><path class="cls-11_construction-site-14" d="M303.42,227.63s-3.7,8.4-3.33,9.7,7.14,5.18,7.32,8c.2,3.26-1.81,6.45-5.06,5.59a10,10,0,0,1-2.55-1.24c-4-2.47-8.28-4.66-11.92-7.62-4.06-3.31-.7-9.18.63-13.23q1.88-5.74,3.85-11.48h0Z"/><path class="cls-4_construction-site-14 targetColor" d="M305.94,148.74s-7.41,40.32-11,48.86-8.13,23.85-8.13,23.85,6.72,12.66,19.91,8.08l16.47-53.85" style="fill: rgb(207, 153, 119);"/><path class="cls-5_construction-site-14" d="M305.94,148.74s-7.41,40.32-11,48.86-8.13,23.85-8.13,23.85,6.72,12.66,19.91,8.08l16.47-53.85"/><path class="cls-4_construction-site-14 targetColor" d="M331.88,153.45s2.25,32.65,3.61,44.7c1.62,14.22,3.44,46.95,3.44,46.95a23,23,0,0,1-21,0s-4.62-39.54-6.95-46.19-5.63-43.8-5.63-43.8Z" style="fill: rgb(207, 153, 119);"/><path class="cls-4_construction-site-14 targetColor" d="M305.34,155.11l2.59-29.45,23.9,1.74v26c-7.54,9.7-26.49,1.66-26.49,1.66" style="fill: rgb(207, 153, 119);"/><path class="cls-6_construction-site-14" d="M334.9,101.77s.89,12.36-6.18,15.08-13.5-13.37-8.55-19.5"/><path class="cls-11_construction-site-14" d="M327.77,106.11c-.92-.09-.83,2-3.61,2.18s-2.32,1.24-2.78,2.7-.89,2.69-3,2.47a3.09,3.09,0,0,1-3-3.21,3.34,3.34,0,0,1,.19-1c.87-1.92-1-2.78-.86-4.34s1.4-6.25,4.47-6.77"/><path class="cls-3_construction-site-14" d="M335.9,98.05a7.11,7.11,0,0,1,3.71,5.88c0,4-8.14,6.26-15.64,2.93s-8.05-5.65-8.05-5.65"/><path class="cls-12_construction-site-14" d="M337.81,101.21s.16-9.66-7.5-11.49-12.69,1.92-13.59,5.75a17.68,17.68,0,0,0-.72,5.74,14.4,14.4,0,0,0,10.93,5.59C334.54,107.37,338,103.4,337.81,101.21Z"/><path class="cls-3_construction-site-14" d="M319.24,91.59c.22-.2,1.51,0,1.84,0a13.3,13.3,0,0,1,6.85,1.8c2.4,1.57,3.42,4.19,4,6.9a8.27,8.27,0,0,1,.21,1.41,1.44,1.44,0,0,0,1.87.76c1.31-.49.92-2.62.92-2.63a11.88,11.88,0,0,0-12.69-9.89A19.37,19.37,0,0,0,319.24,91.59Z"/><polyline class="cls-2_construction-site-14" points="255.55 97.51 255.55 101.51 344.54 152.36 362.73 142.15 362.73 138.01"/><polygon class="cls-3_construction-site-14" points="362.73 138.01 345.36 148.3 255.55 97.51 274.06 86.53 362.73 138.01"/><path class="cls-6_construction-site-14" d="M302.78,119.6l4.21-6.09s.81-7.41,2.08-6.66,2.26,4.4,2.26,4.4l4.33-1.93s7.41,4.3,7.51,5.72-5.24,7.85-7.24,7.68-7.55,6.09-7.55,6.09S303.09,123.09,302.78,119.6Z"/><path class="cls-4_construction-site-14 targetColor" d="M309.64,126.4c-3-1.31-6-3.52-6.86-6.79-1.32,2-13,20.06-3.62,27.72,8.33,6.85,14-13,15.66-19.41A21.71,21.71,0,0,1,309.64,126.4Z" style="fill: rgb(207, 153, 119);"/></g></svg>