<svg version="1.1" id="Layer_1" xmlns="http://www.w3.org/2000/svg" xmlns:xlink="http://www.w3.org/1999/xlink" x="0px" y="0px" viewBox="0 0 500 500" style="width: 164px;" xml:space="preserve" data-imageid="construction-site-1-85" imageName="Construction Site 1" class="illustrations_image">
<style type="text/css">
	.st0_construction-site-1-85{fill:#787C96;}
	.st1_construction-site-1-85{fill:url(#SVGID_1_);}
	.st2_construction-site-1-85{fill:url(#SVGID_00000125566076989199006090000003549313341423802276_);}
	.st3_construction-site-1-85{fill:url(#SVGID_00000155846790387518933640000001743269795413237439_);}
	.st4_construction-site-1-85{fill:#B24800;}
	.st5_construction-site-1-85{fill:#EA6C0F;}
	.st6_construction-site-1-85{fill:#FF7C28;}
	.st7_construction-site-1-85{fill:#68E1FD;}
	.st8_construction-site-1-85{opacity:0.25;fill:#606060;enable-background:new    ;}
	.st9_construction-site-1-85{fill:#FF8522;}
	.st10_construction-site-1-85{fill:#FFFEF3;}
	.st11_construction-site-1-85{opacity:0.15;fill:#FF8522;enable-background:new    ;}
	.st12_construction-site-1-85{fill:#FF9F57;}
	.st13_construction-site-1-85{opacity:0.46;}
	.st14_construction-site-1-85{opacity:0.46;fill:#606060;enable-background:new    ;}
	.st15_construction-site-1-85{opacity:0.76;fill:#606060;enable-background:new    ;}
	.st16_construction-site-1-85{opacity:0.76;}
	.st17_construction-site-1-85{fill:#606060;}
</style>
<path id="Base_construction-site-1-85" class="st0_construction-site-1-85" d="M258.6,431.8l212-119c4.9-2.7,6.6-8.9,3.9-13.8c-0.8-1.5-2-2.7-3.5-3.6L265.5,168.1&#xA;&#9;c-3.2-2-7.2-2-10.5-0.2L30.8,298c-4.8,2.8-6.5,9-3.7,13.8c0.9,1.5,2.2,2.8,3.7,3.7l199.9,116C239.3,436.5,249.9,436.6,258.6,431.8z"/>
<g id="Shadow_00000162350206022395940720000004263725487598782127__construction-site-1-85">
	
		<linearGradient id="SVGID_1_-construction-site-1-85" gradientUnits="userSpaceOnUse" x1="335.2104" y1="235.7341" x2="285.4669" y2="175.3311" gradientTransform="matrix(1 0 0 -1 0 502)">
		<stop offset="0" style="stop-color:#8C6239"/>
		<stop offset="1" style="stop-color:#787C96"/>
	</linearGradient>
	<path class="st1_construction-site-1-85" d="M292.2,292.5c-13.3,8.3-29.3,17.9-42.7,29l30.8,22.4l64.8-40.8C337.5,299.5,298.2,298.4,292.2,292.5z"/>
	
		<linearGradient id="SVGID_00000039119921996625262850000000168850652385748629_-construction-site-1-85" gradientUnits="userSpaceOnUse" x1="300.4928" y1="219.3448" x2="210.1513" y2="109.6444" gradientTransform="matrix(1 0 0 -1 0 502)">
		<stop offset="0" style="stop-color:#8C6239"/>
		<stop offset="1" style="stop-color:#787C96"/>
	</linearGradient>
	<path style="fill:url(#SVGID_00000039119921996625262850000000168850652385748629_);" d="M169.3,338.9c-13.3,8.3-29.3,17.9-42.7,29&#xA;&#9;&#9;l101.9,57.7l108.2-61C329.1,360.9,175.3,344.8,169.3,338.9z"/>
	
		<linearGradient id="SVGID_00000073686927467342657640000004765075255363860129_-construction-site-1-85" gradientUnits="userSpaceOnUse" x1="139.4709" y1="232.4862" x2="89.7273" y2="172.0832" gradientTransform="matrix(1 0 0 -1 0 502)">
		<stop offset="0" style="stop-color:#8C6239"/>
		<stop offset="1" style="stop-color:#787C96"/>
	</linearGradient>
	<path style="fill:url(#SVGID_00000073686927467342657640000004765075255363860129_);" d="M96.5,295.7c-13.3,8.3-29.3,17.9-42.7,29&#xA;&#9;&#9;l30.8,22.4l64.8-40.8C141.8,302.7,102.5,301.6,96.5,295.7z"/>
</g>
<g id="Emplacement_construction-site-1-85">
	<polyline class="st4_construction-site-1-85" points="285.1,393.4 272.8,386.4 276.2,382.8 285.6,388.9 &#9;"/>
	<polyline class="st5_construction-site-1-85" points="292.9,384.3 278.6,376.4 273.4,382.1 285.1,388.8 &#9;"/>
	<polygon class="st6_construction-site-1-85" points="285.1,388.8 292.9,384.3 292.9,388.8 285.1,393.4 &#9;"/>
	<polyline class="st4_construction-site-1-85" points="306.9,381.4 294.6,374.3 298,370.8 307.5,376.8 &#9;"/>
	<polyline class="st5_construction-site-1-85" points="314.7,372.3 300.4,364.3 295.2,370.1 306.9,376.8 &#9;"/>
	<polygon class="st6_construction-site-1-85" points="306.9,376.8 314.7,372.3 314.7,376.8 306.9,381.4 &#9;"/>
	<polyline class="st4_construction-site-1-85" points="328.9,369.2 316.6,362.1 320,358.6 329.5,364.6 &#9;"/>
	<polyline class="st5_construction-site-1-85" points="336.7,360.1 322.4,352.1 317.2,357.9 328.9,364.6 &#9;"/>
	<polygon class="st6_construction-site-1-85" points="328.9,364.6 336.7,360.1 336.7,364.6 328.9,369.2 &#9;"/>
	<polyline class="st4_construction-site-1-85" points="260.2,407.6 247.9,400.5 251.3,397 260.8,403 &#9;"/>
	<polyline class="st5_construction-site-1-85" points="268,398.5 253.7,390.5 248.5,396.3 260.2,403 &#9;"/>
	<polygon class="st6_construction-site-1-85" points="260.2,403 268,398.5 268,403 260.2,407.6 &#9;"/>
	<polyline class="st4_construction-site-1-85" points="198.1,392.1 210.4,385.1 207,381.6 197.5,387.6 &#9;"/>
	<polyline class="st5_construction-site-1-85" points="190.3,383.1 204.6,375.1 209.7,380.9 198.1,387.6 &#9;"/>
	<polygon class="st6_construction-site-1-85" points="198.1,387.6 190.3,383.1 190.3,387.6 198.1,392.1 &#9;"/>
	<polyline class="st4_construction-site-1-85" points="177.1,380.3 189.4,373.3 186,369.7 176.6,375.8 &#9;"/>
	<polyline class="st5_construction-site-1-85" points="169.3,371.2 183.6,363.3 188.8,369 177.1,375.7 &#9;"/>
	<polygon class="st6_construction-site-1-85" points="177.1,375.7 169.3,371.2 169.3,375.7 177.1,380.3 &#9;"/>
	<polyline class="st4_construction-site-1-85" points="154.2,366.8 166.5,359.8 163.1,356.3 153.7,362.3 &#9;"/>
	<polyline class="st5_construction-site-1-85" points="146.4,357.8 160.7,349.8 165.9,355.6 154.2,362.2 &#9;"/>
	<polygon class="st6_construction-site-1-85" points="154.2,362.2 146.4,357.8 146.4,362.2 154.2,366.8 &#9;"/>
	<polyline class="st4_construction-site-1-85" points="222.6,406.5 234.9,399.5 231.6,396 222.1,402 &#9;"/>
	<polyline class="st5_construction-site-1-85" points="214.9,397.4 229.1,389.5 234.3,395.2 222.6,401.9 &#9;"/>
	<polygon class="st6_construction-site-1-85" points="222.6,401.9 214.9,397.4 214.9,401.9 222.6,406.5 &#9;"/>
	<path class="st7_construction-site-1-85 targetColor" d="M333.4,351.5v2.6l-92.7,52.5c0,0-95.6-55.2-95.6-55.5s0-2.9,0-2.9" style="fill: rgb(207, 153, 119);"/>
	<path class="st8_construction-site-1-85" d="M333.4,351.5v2.6l-92.7,52.5c0,0-95.6-55.2-95.6-55.5s0-2.9,0-2.9"/>
	<polygon class="st7_construction-site-1-85 targetColor" points="240.4,403.2 145.1,348.1 239.1,295.3 333.4,351.5 &#9;" style="fill: rgb(207, 153, 119);"/>
	<polyline class="st5_construction-site-1-85" points="268.6,313.3 268.6,316.9 187,362.3 170.3,353.2 170.3,349.5 &#9;"/>
	<polygon class="st9_construction-site-1-85" points="170.3,349.5 186.2,358.7 268.6,313.3 251.6,303.5 &#9;"/>
	<polyline class="st5_construction-site-1-85" points="270.1,309.4 270.1,313 188.5,358.4 171.8,349.3 171.8,345.6 &#9;"/>
	<polygon class="st9_construction-site-1-85" points="171.8,345.6 187.8,354.8 270.1,309.4 253.1,299.6 &#9;"/>
	<polyline class="st5_construction-site-1-85" points="290.2,325.3 290.2,328.9 208.6,374.3 191.9,365.2 191.9,361.5 &#9;"/>
	<polygon class="st9_construction-site-1-85" points="191.9,361.5 207.9,370.7 290.2,325.3 273.2,315.5 &#9;"/>
	<polyline class="st5_construction-site-1-85" points="291.7,321.4 291.7,325 210.1,370.4 193.4,361.3 193.4,357.6 &#9;"/>
	<polygon class="st9_construction-site-1-85" points="193.4,357.6 209.4,366.8 291.7,321.4 274.7,311.6 &#9;"/>
	<polyline class="st5_construction-site-1-85" points="309.8,338.1 309.8,341.7 228.2,387.2 211.5,378 211.5,374.4 &#9;"/>
	<polygon class="st9_construction-site-1-85" points="211.5,374.4 227.4,383.5 309.8,338.1 292.8,328.4 &#9;"/>
	<polyline class="st5_construction-site-1-85" points="310.2,333.8 310.2,337.4 228.7,382.8 212,373.7 212,370 &#9;"/>
	<polygon class="st9_construction-site-1-85" points="212,370 227.9,379.2 310.2,333.8 293.3,324 &#9;"/>
	<polyline class="st5_construction-site-1-85" points="271.1,305.1 271.1,308.6 189.6,354.1 172.9,345 172.9,341.3 &#9;"/>
	<polygon class="st9_construction-site-1-85" points="172.9,341.3 188.8,350.4 271.1,305.1 254.2,295.3 &#9;"/>
	<polyline class="st5_construction-site-1-85" points="272.6,301.1 272.6,304.7 191.1,350.1 174.4,341 174.4,337.3 &#9;"/>
	<polygon class="st9_construction-site-1-85" points="174.4,337.3 190.3,346.5 272.6,301.1 255.7,291.3 &#9;"/>
	<polyline class="st5_construction-site-1-85" points="292.2,317.8 292.2,321.3 210.6,366.8 193.9,357.6 193.9,353.9 &#9;"/>
	<polygon class="st9_construction-site-1-85" points="193.9,353.9 209.8,363.1 292.2,317.8 275.2,307.9 &#9;"/>
	<polyline class="st5_construction-site-1-85" points="293.7,313.8 293.7,317.4 212.1,362.8 195.4,353.7 195.4,350 &#9;"/>
	<polygon class="st9_construction-site-1-85" points="195.4,350 211.3,359.2 293.7,313.8 276.7,304 &#9;"/>
	<polyline class="st5_construction-site-1-85" points="271.1,301.1 271.1,304.7 189.6,350.1 172.9,341 172.9,337.3 &#9;"/>
	<polygon class="st9_construction-site-1-85" points="172.9,337.3 188.8,346.5 271.1,301.1 254.2,291.3 &#9;"/>
	<polyline class="st5_construction-site-1-85" points="294,314.3 294,317.8 212.4,363.3 195.7,354.1 195.7,350.5 &#9;"/>
	<polygon class="st9_construction-site-1-85" points="195.7,350.5 211.6,359.6 294,314.3 277,304.5 &#9;"/>
	<polyline class="st5_construction-site-1-85" points="295.5,310.3 295.5,313.9 213.9,359.3 197.2,350.2 197.2,346.5 &#9;"/>
	<polygon class="st9_construction-site-1-85" points="197.2,346.5 213.1,355.7 295.5,310.3 278.5,300.5 &#9;"/>
</g>
<g id="Cone_construction-site-1-85">
	<path class="st4_construction-site-1-85" d="M121.9,322.9l30.1-17.8c2.2-1.3,2.9-4.1,1.6-6.3c-0.4-0.6-0.9-1.1-1.5-1.5l-24.9-16.2&#xA;&#9;&#9;c-2.6-1.7-5.9-1.7-8.5,0.1L89.2,301c-2.1,1.4-2.7,4.3-1.2,6.4c0.4,0.6,0.9,1,1.4,1.4l23.5,14.1&#xA;&#9;&#9;C115.7,324.5,119.1,324.6,121.9,322.9z"/>
	<path class="st5_construction-site-1-85" d="M121.9,320.2l30.1-17.9c2.2-1.3,2.9-4.1,1.6-6.3c-0.4-0.6-0.9-1.1-1.5-1.5l-24.9-16.2&#xA;&#9;&#9;c-2.6-1.7-5.9-1.7-8.5,0.1l-29.6,19.9c-2.1,1.4-2.7,4.3-1.2,6.4c0.4,0.6,0.9,1,1.4,1.4l23.5,14.1&#xA;&#9;&#9;C115.7,321.8,119.1,321.9,121.9,320.2z"/>
	<path class="st9_construction-site-1-85" d="M116.9,248.7l-16,50.5c0,0-3.9,12.8,20.1,11.5s20.8-13.2,20.8-13.2l-16-48.9"/>
	<path class="st10_construction-site-1-85" d="M111,267.4c0,0,3.2,3.3,10.5,3.3c9.1,0,10.1-4.5,10.1-4.5l3.3,10.2c0,0-2.4,5.8-13.4,5.6&#xA;&#9;&#9;c-10-0.2-13.9-3.8-13.9-3.8"/>
	<path class="st10_construction-site-1-85" d="M105,286.7c4.3,4.2,10.1,6.5,16.2,6.4c11.9-0.1,16.3-8.6,16.3-8.6l3.5,10.8c0,0-5.1,7.9-19.7,8.9&#xA;&#9;&#9;c-13.8,1-19.7-6.7-19.7-6.7"/>
	<path class="st11_construction-site-1-85" d="M120.3,249.1h-3.4l-16,50.5c0,0-3.6,12,17.7,11.6C119.1,290.5,120.1,269.8,120.3,249.1z"/>
	<ellipse class="st12_construction-site-1-85" cx="121.4" cy="249.1" rx="4.6" ry="2.6"/>
</g>
<g id="Crane_construction-site-1-85">
	<polyline class="st12_construction-site-1-85" points="209.6,314.5 209.6,321.8 217.4,326.4 231.2,317.6 231.2,310 &#9;"/>
	<polygon class="st4_construction-site-1-85" points="209.6,314.5 217.4,319.1 231.2,310 223.6,305.6 &#9;"/>
	<polyline class="st7_construction-site-1-85 targetColor" points="288,289.1 288,295.8 324,317 386.5,280.6 386.5,273.8 &#9;" style="fill: rgb(207, 153, 119);"/>
	<g class="st13_construction-site-1-85">
		<polyline class="st7_construction-site-1-85 targetColor" points="288,289.1 288,295.8 324,317 386.5,280.6 386.5,273.8 &#9;&#9;" style="fill: rgb(207, 153, 119);"/>
	</g>
	<polygon class="st7_construction-site-1-85 targetColor" points="288,289.1 324.1,309.8 386.5,273.8 350.5,252.9 &#9;" style="fill: rgb(207, 153, 119);"/>
	<path class="st7_construction-site-1-85 targetColor" d="M325.7,282.9h-1.4V144.3c0-6.9,0-7,0.7-6.9l0.7,0.7C325.8,138.3,325.7,282.9,325.7,282.9z" style="fill: rgb(207, 153, 119);"/>
	<rect x="344.9" y="133.1" class="st7_construction-site-1-85 targetColor" width="1.4" height="148.2" style="fill: rgb(207, 153, 119);"/>
	<rect x="333.9" y="134" class="st7_construction-site-1-85 targetColor" width="1.4" height="152.5" style="fill: rgb(207, 153, 119);"/>
	<path class="st7_construction-site-1-85 targetColor" d="M334.6,265.3l-10.3-5.9l8.7-10.3l-8.5-5.2l0.7-1.2l9.8,6l10.1-5.4l0.7,1.2l-9.4,5l9.7,8.7L334.6,265.3z&#xA;&#9;&#9; M326.6,259l8.1,4.7l9.3-5.7l-9.4-8.4L326.6,259z" style="fill: rgb(207, 153, 119);"/>
	<path class="st7_construction-site-1-85 targetColor" d="M334.6,236.1l-10.3-5.9l8.7-10.3l-8.5-5.2l0.7-1.2l9.8,6.1l10.1-5.4l0.7,1.2l-9.4,5l9.7,8.7L334.6,236.1z&#xA;&#9;&#9; M326.6,229.8l8.1,4.6l9.3-5.7l-9.4-8.4L326.6,229.8z" style="fill: rgb(207, 153, 119);"/>
	<path class="st7_construction-site-1-85 targetColor" d="M334.6,209.7l-10.3-5.9l8.7-10.3l-8.5-5.2l0.7-1.2l9.8,6.1l10.1-5.4l0.7,1.2l-9.4,5l9.7,8.7L334.6,209.7z&#xA;&#9;&#9; M326.6,203.4l8.1,4.6l9.3-5.7l-9.4-8.4L326.6,203.4z" style="fill: rgb(207, 153, 119);"/>
	<path class="st7_construction-site-1-85 targetColor" d="M334.6,184.9l-10.3-5.9l8.7-10.3l-8.5-5.2l0.7-1.2l9.8,6.1l10.1-5.4l0.7,1.2l-9.4,5l9.7,8.7L334.6,184.9z&#xA;&#9;&#9; M326.6,178.6l8.1,4.7l9.3-5.7l-9.4-8.4L326.6,178.6z" style="fill: rgb(207, 153, 119);"/>
	<path class="st7_construction-site-1-85 targetColor" d="M334.6,158.4l-10.3-5.9l8.7-10.3l-5.8-3.6l0.8-1.2l7.1,4.4l10.1-5.4l0.7,1.2l-9.4,5l9.7,8.7L334.6,158.4z&#xA;&#9;&#9; M326.6,152.1l8.1,4.7l9.3-5.7l-9.4-8.4L326.6,152.1z" style="fill: rgb(207, 153, 119);"/>
	<path class="st7_construction-site-1-85 targetColor" d="M219,201.1c-0.2,0-0.3,0-0.4-0.1l-14.1-8.1c-0.3-0.2-0.5-0.5-0.5-0.8v-12.4l2.2,1.2l13.3,7.8&#xA;&#9;&#9;c0.3,0.2,0.5,0.5,0.5,0.8v10.8c0,0.3-0.2,0.6-0.5,0.8C219.3,201.1,219.2,201.1,219,201.1z M205.4,191.8l13.1,7.6v-9.7l-13.1-7.6&#xA;&#9;&#9;V191.8z M205.2,191.6L205.2,191.6z" style="fill: rgb(207, 153, 119);"/>
	<path class="st7_construction-site-1-85 targetColor" d="M219.3,201.2l-0.7-1.2l156.5-90.2v-9.6L361,90.8l-135.4,78l4.1,15.2l-25.6-3.2l-0.2-1l0.4-0.3l156.8-90.3&#xA;&#9;&#9;l15.4,10.3v11.1L219.3,201.2z M206.7,179.7l21.1,2.6l-3.4-12.8L206.7,179.7z" style="fill: rgb(207, 153, 119);"/>
	
		<rect x="207.1" y="143.8" transform="matrix(0.8689 -0.495 0.495 0.8689 -32.5339 166.1389)" class="st7_construction-site-1-85 targetColor" width="180.6" height="1.4" style="fill: rgb(207, 153, 119);"/>
	<polygon class="st7_construction-site-1-85 targetColor" points="384.6,100.1 384.6,114.9 407.4,101.5 407.4,86.7 &#9;" style="fill: rgb(207, 153, 119);"/>
	<polygon class="st7_construction-site-1-85 targetColor" points="384.6,114.9 375.8,110.2 375.8,95.4 384.6,100.1 &#9;" style="fill: rgb(207, 153, 119);"/>
	<polygon class="st14_construction-site-1-85" points="384.6,100.1 384.6,114.9 407.4,101.5 407.4,86.7 &#9;"/>
	<polygon class="st15_construction-site-1-85" points="384.6,114.9 375.8,110.2 375.8,95.4 384.6,100.1 &#9;"/>
	<polygon class="st7_construction-site-1-85 targetColor" points="230.9,194.7 229.5,194.7 229.5,184.7 213.8,175.7 214.5,174.5 230.9,183.9 &#9;" style="fill: rgb(207, 153, 119);"/>
	<polygon class="st7_construction-site-1-85 targetColor" points="241.7,188.5 240.3,188.5 240.3,178.5 224.6,169.5 225.3,168.2 241.7,177.7 &#9;" style="fill: rgb(207, 153, 119);"/>
	<polygon class="st7_construction-site-1-85 targetColor" points="250.9,183.2 249.5,183.2 249.5,173.2 233.8,164.1 234.4,162.9 250.9,172.4 &#9;" style="fill: rgb(207, 153, 119);"/>
	<polygon class="st7_construction-site-1-85 targetColor" points="261.7,176.9 260.3,176.9 260.3,166.9 244.5,157.9 245.2,156.7 261.7,166.1 &#9;" style="fill: rgb(207, 153, 119);"/>
	<polygon class="st7_construction-site-1-85 targetColor" points="269.7,171.4 268.3,171.4 268.3,161.4 252.6,152.4 253.3,151.1 269.7,160.6 &#9;" style="fill: rgb(207, 153, 119);"/>
	<polygon class="st7_construction-site-1-85 targetColor" points="280.5,165.2 279.1,165.2 279.1,155.2 263.3,146.1 264,144.9 280.5,154.3 &#9;" style="fill: rgb(207, 153, 119);"/>
	<polygon class="st7_construction-site-1-85 targetColor" points="290.4,159.3 289,159.3 289,149.3 273.2,140.3 274,139.1 290.4,148.5 &#9;" style="fill: rgb(207, 153, 119);"/>
	<polygon class="st7_construction-site-1-85 targetColor" points="301.2,153.1 299.8,153.1 299.8,143.1 284,134.1 284.7,132.9 301.2,142.3 &#9;" style="fill: rgb(207, 153, 119);"/>
	<polygon class="st7_construction-site-1-85 targetColor" points="310.7,148.4 309.3,148.4 309.3,138.4 293.6,129.3 294.3,128.1 310.7,137.5 &#9;" style="fill: rgb(207, 153, 119);"/>
	<polygon class="st7_construction-site-1-85 targetColor" points="321.5,142.1 320.1,142.1 320.1,132.1 304.3,123.1 305,121.9 321.5,131.3 &#9;" style="fill: rgb(207, 153, 119);"/>
	<polygon class="st7_construction-site-1-85 targetColor" points="331.1,136.4 329.7,136.4 329.7,127 313.9,118 314.6,116.7 331.1,126.2 &#9;" style="fill: rgb(207, 153, 119);"/>
	<polygon class="st7_construction-site-1-85 targetColor" points="341.9,130.7 340.4,130.7 340.4,120.8 324.7,111.7 325.4,110.5 341.9,119.9 &#9;" style="fill: rgb(207, 153, 119);"/>
	<polygon class="st7_construction-site-1-85 targetColor" points="249.7,172.8 225.7,169.3 225.9,167.9 247.7,171.1 243.8,157.9 245.1,157.5 &#9;" style="fill: rgb(207, 153, 119);"/>
	<polygon class="st7_construction-site-1-85 targetColor" points="268.8,161 244.8,157.5 245,156.1 266.8,159.3 262.9,146.1 264.2,145.8 &#9;" style="fill: rgb(207, 153, 119);"/>
	<polygon class="st7_construction-site-1-85 targetColor" points="290.1,149.6 265.3,146.3 265.5,144.9 288.1,147.9 284.1,134.8 285.5,134.4 &#9;" style="fill: rgb(207, 153, 119);"/>
	<polygon class="st7_construction-site-1-85 targetColor" points="309.8,137.5 285.8,134.1 286,132.7 307.8,135.8 303.9,122.7 305.2,122.3 &#9;" style="fill: rgb(207, 153, 119);"/>
	<polygon class="st7_construction-site-1-85 targetColor" points="330,126.7 306,123.2 306.2,121.8 328,125 324.1,111.9 325.5,111.5 &#9;" style="fill: rgb(207, 153, 119);"/>
	<path class="st7_construction-site-1-85 targetColor" d="M192.6,217.9l-13.2-10.1l24.9-28.2l15.9,9.5L192.6,217.9z M181.5,207.6l11,8.4l25.5-26.6l-13.4-8L181.5,207.6z&#xA;&#9;&#9;" style="fill: rgb(207, 153, 119);"/>
	
		<rect x="190" y="207.4" transform="matrix(0.8501 -0.5267 0.5267 0.8501 -78.5962 140.1554)" class="st7_construction-site-1-85 targetColor" width="33.7" height="1.4" style="fill: rgb(207, 153, 119);"/>
	<path class="st7_construction-site-1-85 targetColor" d="M216.3,202.3c-0.2,0.2,0,112.3,0,112.3" style="fill: rgb(207, 153, 119);"/>
	<path class="st7_construction-site-1-85 targetColor" d="M215.6,314.5c0,0-0.1-28-0.1-56.1c-0.1-56.5-0.1-56.5,0.4-56.8l0.4,0.6l0.7,0.1c-0.2,1.8-0.1,74.2,0,112.2&#xA;&#9;&#9;H215.6z" style="fill: rgb(207, 153, 119);"/>
	<path class="st7_construction-site-1-85 targetColor" d="M223.7,197.7c-0.2,0.1,0,112.3,0,112.3" style="fill: rgb(207, 153, 119);"/>
	<path class="st7_construction-site-1-85 targetColor" d="M223,310c0,0-0.1-28-0.1-56.1c-0.1-56.5-0.1-56.5,0.4-56.8l0.4,0.6l0.7,0.1c-0.2,1.8-0.1,74.1,0,112.2H223z" style="fill: rgb(207, 153, 119);"/>
	<polygon class="st7_construction-site-1-85 targetColor" points="375.8,95.3 399.1,81.7 407.4,86.7 384.6,100.1 &#9;" style="fill: rgb(207, 153, 119);"/>
	<polygon class="st7_construction-site-1-85 targetColor" points="361.2,119.4 359.8,119.4 359.8,109.4 344,100.4 344.8,99.2 361.2,108.6 &#9;" style="fill: rgb(207, 153, 119);"/>
	<polygon class="st7_construction-site-1-85 targetColor" points="349.4,115.4 325.4,111.9 325.6,110.5 347.4,113.7 343.5,100.5 344.8,100.1 &#9;" style="fill: rgb(207, 153, 119);"/>
	<polygon class="st7_construction-site-1-85 targetColor" points="368.3,104.8 345.5,100.2 345.7,98.8 365.9,102.9 360.4,90.3 361.7,89.7 &#9;" style="fill: rgb(207, 153, 119);"/>
	<polygon class="st7_construction-site-1-85 targetColor" points="334.4,110.8 334.4,132.9 344.2,138.5 344.2,116.7 &#9;" style="fill: rgb(207, 153, 119);"/>
	<polygon class="st7_construction-site-1-85 targetColor" points="344.2,116.7 353.5,111.7 353.5,133.2 344.2,138.5 &#9;" style="fill: rgb(207, 153, 119);"/>
	<g class="st16_construction-site-1-85">
		<polygon class="st17_construction-site-1-85" points="334.4,110.8 334.4,132.9 344.2,138.5 344.2,116.7 &#9;&#9;"/>
	</g>
	<g class="st13_construction-site-1-85">
		<polygon class="st17_construction-site-1-85" points="344.2,116.7 353.5,111.7 353.5,133.2 344.2,138.5 &#9;&#9;"/>
	</g>
	<polygon class="st7_construction-site-1-85 targetColor" points="334.4,110.8 343.7,105.8 353.5,111.7 344.2,116.7 &#9;" style="fill: rgb(207, 153, 119);"/>
	<path class="st10_construction-site-1-85" d="M351.9,121.4v-5.6l-6,3.3v5.5C347.9,123.5,349.9,122.6,351.9,121.4z"/>
	<path class="st10_construction-site-1-85" d="M336.3,120.8v-5.6l6,3.3v5.5C340.3,122.9,338.3,122,336.3,120.8z"/>
</g>
</svg>