<svg id="_0390_mountain_1" data-name="0390_mountain_1" xmlns="http://www.w3.org/2000/svg" xmlns:xlink="http://www.w3.org/1999/xlink" viewBox="0 0 500 500" data-imageid="mountain-1-28" imageName="Mountain 1" class="illustrations_image" style="width: 164px;"><defs><style>.cls-1_mountain-1-28{fill:#ff912e;}.cls-2_mountain-1-28{fill:#cc630d;}.cls-3_mountain-1-28{fill:#fcd5b9;}.cls-4_mountain-1-28{fill:#68e1fd;}.cls-5_mountain-1-28,.cls-6_mountain-1-28{fill:#351b0c;}.cls-5_mountain-1-28{opacity:0.24;}.cls-6_mountain-1-28{opacity:0.4;}.cls-11_mountain-1-28,.cls-12_mountain-1-28,.cls-13_mountain-1-28,.cls-7_mountain-1-28{opacity:0.68;}.cls-7_mountain-1-28{fill:url(#linear-gradient);}.cls-8_mountain-1-28{fill:#bc532a;}.cls-9_mountain-1-28{fill:#2c9135;}.cls-10_mountain-1-28{fill:#156819;}.cls-11_mountain-1-28{fill:url(#linear-gradient-2-mountain-1-28);}.cls-12_mountain-1-28{fill:url(#linear-gradient-3-mountain-1-28);}.cls-13_mountain-1-28{fill:url(#linear-gradient-4-mountain-1-28);}</style><linearGradient id="linear-gradient-mountain-1-28" x1="51.89" y1="258.8" x2="66.36" y2="249.21" gradientUnits="userSpaceOnUse"><stop offset="0" stop-color="#ff912e"/><stop offset="1" stop-color="#bb652e"/></linearGradient><linearGradient id="linear-gradient-2-mountain-1-28" x1="251.2" y1="363.9" x2="263.07" y2="356.04" xlink:href="#linear-gradient-mountain-1-28"/><linearGradient id="linear-gradient-3-mountain-1-28" x1="414.37" y1="271.49" x2="426.24" y2="263.63" xlink:href="#linear-gradient-mountain-1-28"/><linearGradient id="linear-gradient-4-mountain-1-28" x1="276.17" y1="174.74" x2="288.03" y2="166.87" xlink:href="#linear-gradient-mountain-1-28"/></defs><g id="field_mountain-1-28"><path class="cls-1_mountain-1-28" d="M243.05,386.91,24.46,257.72c-7-3.9-12.93-10.32-6.14-14.52L237.69,116.76c3.29-2,8.29-3.37,11.64-1.43L478.78,248.5c7,4,8.21,15.33,1.25,19.37L271.86,386.7A29.06,29.06,0,0,1,243.05,386.91Z"/><path class="cls-2_mountain-1-28" d="M248.92,275.81s-71.15-6.48-63.11,20-50.18,27.66-50.18,27.66l59.23,35s36.34-19.32,24.78-41.5c-14.6-28,27.41-37.52,27.41-37.52"/><path class="cls-3_mountain-1-28" d="M247.29,278.82c-1.09,2-63.79-6.15-55.75,20.33s-50.18,27.66-50.18,27.66l59.23,35s36.34-19.32,24.78-41.5c-14.6-28,16.71-31.88,16.71-31.88"/></g><g id="mountains_mountain-1-28"><path class="cls-4_mountain-1-28 targetColor" d="M95.48,243.23c.73-2.19,62.35-96.16,66.19-100s5.23-3.49,6.28-5.93,15.35-19.54,17.1-21.64,6.28-5.93,8-6.28,17.1,6.63,19.89,7.68,9.42,14.31,12.56,14.66,16.75,2.09,17.8,3.49,22.33,43.26,22.33,43.26l18.5,58.63s5.17,31.75,1.88,34.19S213,280,208.08,278.62,147,274.78,139,273.74s-31.41-11.52-34.9-13.61S95.48,243.23,95.48,243.23Z" style="fill: rgb(255, 179, 166);"/><path class="cls-5_mountain-1-28" d="M168,137.3l1.92,11.63-65.78,111.2s-3.74-2.67-8.61-16.9l37.2-57.36L157.42,149A38.86,38.86,0,0,1,168,137.3Z"/><path class="cls-5_mountain-1-28" d="M231.69,170.84,195.94,181,185.75,226,163,275.37l45.12,3.25s60.83-1.19,77.95-7.33Z"/><path class="cls-6_mountain-1-28" d="M243.32,135.21s-11.63,30.41-11.63,35.63,11.63,42.94,11.63,42.94L286,271.29s3-.07-1.88-34.19l-6.72-23.67-11.78-35Z"/><polygon class="cls-6_mountain-1-28" points="169.87 148.93 177.2 175.68 195.94 181.03 169.87 181.24 154.04 175.68 169.87 148.93"/><path class="cls-4_mountain-1-28 targetColor" d="M281.63,204.41s8.4,22,8.4,25.73-8.4,31-8.4,31l-30.84,41.53s-7.14-8.06-8.71-14.24L257,260.9l8.51-25.24Z" style="fill: rgb(255, 179, 166);"/><path class="cls-4_mountain-1-28 targetColor" d="M388.39,282.42c-.53-1.58-45-69.44-47.79-72.21s-3.78-2.52-4.54-4.29S325,191.81,323.71,190.3s-4.53-4.28-5.79-4.53-12.35,4.78-14.37,5.54-6.8,10.33-9.07,10.58-12.09,1.51-12.85,2.52-16.12,31.25-16.12,31.25L252.15,278s-3.73,22.93-1.36,24.69,52.76,6.3,56.29,5.29,44.1-2.77,49.89-3.52,22.68-8.32,25.2-9.83S388.39,282.42,388.39,282.42Z" style="fill: rgb(255, 179, 166);"/><path class="cls-5_mountain-1-28" d="M336.06,205.92l-1.39,8.4,47.5,80.3s2.71-1.93,6.22-12.2L361.53,241l-17.87-26.62A28,28,0,0,0,336.06,205.92Z"/><path class="cls-5_mountain-1-28" d="M290,230.14l25.82,7.36L323.2,270l16.46,35.66L307.08,308s-43.92-.85-56.29-5.29Z"/><path class="cls-5_mountain-1-28" d="M281.63,204.41s8.4,22,8.4,25.73-8.4,31-8.4,31l-30.84,41.53s-7.14-8.06-8.71-14.24L257,260.9l8.51-25.24Z"/><polygon class="cls-6_mountain-1-28" points="334.67 214.32 329.38 233.64 315.85 237.5 334.67 237.65 346.1 233.64 334.67 214.32"/></g><g id="trees_mountain-1-28"><path class="cls-7_mountain-1-28" d="M74.48,248.94l-4.1-3L44.89,256.92c2.67,1.36,6.54,3.71,10.28,5.89C62.56,259,67.64,253.67,74.48,248.94Z"/><rect class="cls-8_mountain-1-28" x="70.38" y="219.08" width="4.63" height="30.71" rx="1.36"/><path class="cls-9_mountain-1-28" d="M84.13,225.36c-1.06-4.63-5.81-25.05-14.22-19.05-4.31,3.08-5.52,7.88-7.25,12.58A37.54,37.54,0,0,0,60,231.06c-.13,8.5,8.51,9.54,15.12,9.5,3.82,0,9.26-2.27,10.15-6.4.54-2.5-.38-5.45-.91-7.89Z"/><path class="cls-10_mountain-1-28" d="M84.54,226.27c-.07-.31-.14-.61-.2-.91-1-4.1-4.77-20.54-11.46-20.13,2,8.66,4.92,17.82,3.35,26.69a20.34,20.34,0,0,1-3.53,8.59c.88,0,1.76.06,2.61.05,3.81,0,9.25-2.27,10.14-6.41C86,231.66,85.07,228.71,84.54,226.27Z"/><path class="cls-11_mountain-1-28" d="M269.73,355.82l-3.36-2.43-20.91,9c2.19,1.11,5.36,3,8.43,4.83C260,364.09,264.12,359.69,269.73,355.82Z"/><rect class="cls-8_mountain-1-28" x="266.37" y="331.32" width="3.8" height="25.19" rx="1.36"/><path class="cls-9_mountain-1-28" d="M277.65,336.48c-.88-3.81-4.77-20.56-11.67-15.63-3.53,2.52-4.53,6.46-5.94,10.32a30.87,30.87,0,0,0-2.2,10c-.11,7,7,7.82,12.4,7.79,3.13,0,7.59-1.86,8.32-5.25.45-2.05-.31-4.47-.74-6.47C277.76,337,277.71,336.72,277.65,336.48Z"/><path class="cls-10_mountain-1-28" d="M278,337.21c-.05-.24-.11-.49-.16-.74-.78-3.36-3.91-16.84-9.4-16.51,1.63,7.11,4,14.62,2.75,21.89a16.66,16.66,0,0,1-2.9,7c.73,0,1.45,0,2.14,0,3.13,0,7.59-1.86,8.32-5.26C279.17,341.64,278.42,339.22,278,337.21Z"/><path class="cls-12_mountain-1-28" d="M432.9,263.4,429.54,261l-20.91,9c2.19,1.12,5.36,3.05,8.43,4.84C423.13,271.67,427.29,267.28,432.9,263.4Z"/><rect class="cls-8_mountain-1-28" x="429.54" y="238.91" width="3.8" height="25.19" rx="1.36"/><path class="cls-9_mountain-1-28" d="M440.82,244.06c-.88-3.8-4.77-20.55-11.67-15.63-3.53,2.53-4.53,6.47-5.94,10.32a31,31,0,0,0-2.2,10c-.11,7,7,7.83,12.4,7.8,3.13,0,7.59-1.86,8.32-5.26.45-2-.31-4.46-.74-6.47C440.93,244.56,440.88,244.31,440.82,244.06Z"/><path class="cls-10_mountain-1-28" d="M441.15,244.8c0-.25-.11-.49-.16-.74-.78-3.36-3.91-16.85-9.4-16.52,1.63,7.11,4,14.62,2.75,21.9a16.57,16.57,0,0,1-2.9,7c.73,0,1.45,0,2.14,0,3.13,0,7.59-1.86,8.32-5.26C442.34,249.22,441.59,246.81,441.15,244.8Z"/><path class="cls-13_mountain-1-28" d="M294.69,166.65l-3.36-2.43-20.9,9c2.18,1.12,5.36,3,8.43,4.84C284.92,174.92,289.08,170.53,294.69,166.65Z"/><rect class="cls-8_mountain-1-28" x="291.33" y="142.16" width="3.8" height="25.19" rx="1.36"/><path class="cls-9_mountain-1-28" d="M302.61,147.31c-.87-3.8-4.76-20.55-11.66-15.63-3.54,2.53-4.54,6.47-5.95,10.32a31,31,0,0,0-2.2,10c-.11,7,7,7.82,12.41,7.8,3.12,0,7.59-1.86,8.32-5.26.44-2.05-.31-4.46-.75-6.47C302.73,147.8,302.67,147.56,302.61,147.31Z"/><path class="cls-10_mountain-1-28" d="M302.94,148.05c-.05-.25-.11-.49-.16-.74-.78-3.36-3.91-16.85-9.4-16.52,1.63,7.11,4,14.62,2.75,21.9a16.44,16.44,0,0,1-2.9,7c.73,0,1.45.05,2.14.05,3.13,0,7.59-1.86,8.32-5.26C304.13,152.47,303.38,150.06,302.94,148.05Z"/></g></svg>